<svg xmlns="http://www.w3.org/2000/svg" width="822" height="1122" fill="none" viewBox="0 0 822 1122"><rect width="822" height="1122" fill="#1a0033" rx="20"/><g fill="#fff066" clip-path="url(#a)"><path d="M121.008 160.92q-15.616 0-24.448-6.528t-8.832-18.304q0-8.448 4.608-14.336 4.735-6.016 12.544-8.064-14.465-5.248-14.465-19.712 0-11.52 7.808-17.664 7.936-6.272 22.785-6.272 14.847 0 22.656 6.272 7.935 6.144 7.936 17.664 0 14.464-14.464 19.712 7.808 2.047 12.416 8.064 4.736 5.888 4.736 14.336 0 11.776-8.832 18.304t-24.448 6.528m0-50.176q11.775 0 17.792-3.84 6.144-3.84 6.144-12.928 0-9.6-5.888-13.824-5.889-4.224-18.048-4.224-12.16 0-18.048 4.224-5.889 4.224-5.888 13.824 0 9.088 6.016 12.928 6.144 3.84 17.92 3.84m0 44.288q13.44 0 19.968-4.608 6.656-4.736 6.656-14.336 0-19.328-26.624-19.328t-26.624 19.328q0 9.6 6.528 14.336 6.656 4.608 20.096 4.608M141.309 231.337v-.004c0-11.782-9.224-21.333-20.603-21.333s-20.603 9.551-20.603 21.333c-11.379 0-20.603 9.552-20.603 21.334S88.724 274 100.103 274c10.386 0 18.977-7.957 20.397-18.305C121.92 266.043 130.511 274 140.897 274c11.379 0 20.603-9.551 20.603-21.333 0-11.64-9.002-21.102-20.191-21.33"/><rect width="5" height="33" x="118.5" y="251" rx="2.5"/><path d="M692.992 957.08q15.616 0 24.448 6.528t8.832 18.304q0 8.448-4.608 14.336c-3.157 4.012-7.338 6.702-12.544 8.062q14.464 5.25 14.464 19.71 0 11.52-7.808 17.67-7.935 6.27-22.784 6.27-14.847 0-22.656-6.27-7.936-6.15-7.936-17.67 0-14.46 14.464-19.71c-5.205-1.36-9.344-4.05-12.416-8.062q-4.736-5.888-4.736-14.336 0-11.776 8.832-18.304t24.448-6.528m0 50.18q-11.775 0-17.792 3.84c-4.096 2.56-6.144 6.87-6.144 12.92q0 9.6 5.888 13.83c3.926 2.81 9.942 4.22 18.048 4.22 8.107 0 14.123-1.41 18.048-4.22q5.889-4.23 5.888-13.83c0-6.05-2.005-10.36-6.016-12.92q-6.144-3.84-17.92-3.84m0-44.292q-13.44 0-19.968 4.608-6.656 4.736-6.656 14.336 0 19.328 26.624 19.328t26.624-19.328q0-9.6-6.528-14.336-6.656-4.608-20.096-4.608M672.691 886.663v.004c0 11.782 9.224 21.333 20.603 21.333s20.603-9.551 20.603-21.333c11.379 0 20.603-9.552 20.603-21.334S725.276 844 713.897 844c-10.386 0-18.977 7.957-20.397 18.305C692.08 851.957 683.489 844 673.103 844c-11.379 0-20.603 9.551-20.603 21.333 0 11.64 9.002 21.102 20.191 21.33"/><rect width="5" height="33" x="695.5" y="867" rx="2.5" transform="rotate(-180 695.5 867)"/></g><path stroke="#fff066" stroke-width="8" d="M411.779 520.935c13.001 0 23.889 11.163 23.889 25.377v3.923l3.918.081c12.786.265 23.414 11.333 23.414 25.372 0 14.214-10.889 25.377-23.89 25.377-11.873 0-21.966-9.289-23.646-21.741h-7.928c-1.68 12.452-11.773 21.741-23.646 21.741-13.001 0-23.89-11.163-23.89-25.377s10.889-25.376 23.89-25.376h4v-4c0-14.214 10.889-25.377 23.889-25.377Z"/><path fill="#fff066" d="M408.307 583.026a3.041 3.041 0 1 1 6.082 0v30.933a3.041 3.041 0 1 1-6.082 0z"/><path stroke="#fff066" stroke-width="8" d="M327.779 682.935c13.001 0 23.889 11.163 23.889 25.377v3.923l3.918.081c12.786.265 23.414 11.333 23.414 25.372 0 14.214-10.889 25.377-23.89 25.377-11.873 0-21.966-9.289-23.646-21.741h-7.928c-1.68 12.452-11.773 21.741-23.646 21.741-13.001 0-23.89-11.163-23.89-25.377s10.889-25.376 23.89-25.376h4v-4c0-14.214 10.889-25.377 23.889-25.377Z"/><path fill="#fff066" d="M324.307 745.026a3.041 3.041 0 1 1 6.082 0v30.933a3.041 3.041 0 1 1-6.082 0z"/><path stroke="#fff066" stroke-width="8" d="M494.779 682.935c13.001 0 23.889 11.163 23.889 25.377v3.923l3.918.081c12.786.265 23.414 11.333 23.414 25.372 0 14.214-10.889 25.377-23.89 25.377-11.873 0-21.966-9.289-23.646-21.741h-7.928c-1.68 12.452-11.773 21.741-23.646 21.741-13.001 0-23.89-11.163-23.89-25.377s10.889-25.376 23.89-25.376h4v-4c0-14.214 10.889-25.377 23.889-25.377Z"/><path fill="#fff066" d="M491.307 745.026a3.041 3.041 0 1 1 6.082 0v30.933a3.041 3.041 0 1 1-6.082 0z"/><path stroke="#fff066" stroke-width="8" d="M579.779 520.935c13.001 0 23.889 11.163 23.889 25.377v3.923l3.918.081c12.786.265 23.414 11.333 23.414 25.372 0 14.214-10.889 25.377-23.89 25.377-11.873 0-21.966-9.289-23.646-21.741h-7.928c-1.68 12.452-11.773 21.741-23.646 21.741-13.001 0-23.89-11.163-23.89-25.377s10.889-25.376 23.89-25.376h4v-4c0-14.214 10.889-25.377 23.889-25.377Z"/><path fill="#fff066" d="M576.307 583.026a3.041 3.041 0 1 1 6.082 0v30.933a3.041 3.041 0 1 1-6.082 0z"/><path stroke="#fff066" stroke-width="8" d="M243.779 520.935c13.001 0 23.889 11.163 23.889 25.377v3.923l3.918.081c12.786.265 23.414 11.333 23.414 25.372 0 14.214-10.889 25.377-23.89 25.377-11.873 0-21.966-9.289-23.646-21.741h-7.928c-1.68 12.452-11.773 21.741-23.646 21.741-13.001 0-23.89-11.163-23.89-25.377s10.889-25.376 23.89-25.376h4v-4c0-14.214 10.889-25.377 23.889-25.377Z"/><path fill="#fff066" d="M240.307 583.026a3.041 3.041 0 1 1 6.082 0v30.933a3.041 3.041 0 1 1-6.082 0z"/><path stroke="#fff066" stroke-width="8" d="M579.779 358.935c13.001 0 23.889 11.163 23.889 25.377v3.923l3.918.081c12.786.265 23.414 11.333 23.414 25.372 0 14.214-10.889 25.377-23.89 25.377-11.873 0-21.966-9.289-23.646-21.741h-7.928c-1.68 12.452-11.773 21.741-23.646 21.741-13.001 0-23.89-11.163-23.89-25.377s10.889-25.376 23.89-25.376h4v-4c0-14.214 10.889-25.377 23.889-25.377Z"/><path fill="#fff066" d="M576.307 421.026a3.041 3.041 0 1 1 6.082 0v30.933a3.041 3.041 0 1 1-6.082 0z"/><path stroke="#fff066" stroke-width="8" d="M243.779 358.935c13.001 0 23.889 11.163 23.889 25.377v3.923l3.918.081c12.786.265 23.414 11.333 23.414 25.372 0 14.214-10.889 25.377-23.89 25.377-11.873 0-21.966-9.289-23.646-21.741h-7.928c-1.68 12.452-11.773 21.741-23.646 21.741-13.001 0-23.89-11.163-23.89-25.377s10.889-25.376 23.89-25.376h4v-4c0-14.214 10.889-25.377 23.889-25.377Z"/><path fill="#fff066" d="M240.307 421.026a3.041 3.041 0 1 1 6.082 0v30.933a3.041 3.041 0 1 1-6.082 0z"/><path stroke="#fff066" stroke-width="8" d="M411.779 358.935c13.001 0 23.889 11.163 23.889 25.377v3.923l3.918.081c12.786.265 23.414 11.333 23.414 25.372 0 14.214-10.889 25.377-23.89 25.377-11.873 0-21.966-9.289-23.646-21.741h-7.928c-1.68 12.452-11.773 21.741-23.646 21.741-13.001 0-23.89-11.163-23.89-25.377s10.889-25.376 23.89-25.376h4v-4c0-14.214 10.889-25.377 23.889-25.377Z"/><path fill="#fff066" d="M408.307 421.026a3.041 3.041 0 1 1 6.082 0v30.933a3.041 3.041 0 1 1-6.082 0z"/><defs><clipPath id="a"><path fill="#fff" d="M46 48h722v1022H46z"/></clipPath></defs></svg>