<svg xmlns="http://www.w3.org/2000/svg" width="822" height="1122" fill="none" viewBox="0 0 822 1122"><rect width="822" height="1122" fill="#1a0033" rx="20"/><g fill="#fff066" clip-path="url(#a)"><path d="M118.084 160.92q-8.32 0-16-1.664t-11.52-4.352q-.768-.512-.896-.896t.256-1.152l1.664-2.816q.384-.768.896-.768.256 0 .896.384 3.84 2.432 10.368 3.968 6.656 1.408 14.336 1.408 12.928 0 20.352-5.888 7.424-5.887 7.424-17.28 0-12.928-6.528-18.304t-19.712-5.376q-12.16 0-20.864 4.224a4.8 4.8 0 0 1-2.176.512q-1.792 0-3.072-1.28-1.153-1.28-1.024-3.328l2.176-33.408q0-2.944 2.944-2.944h48.128q1.536 0 2.176.64.768.511.768 1.92v.896q0 2.816-2.944 2.816h-44.416l-1.792 27.52a45.7 45.7 0 0 1 9.472-2.56q4.992-.896 12.032-.896 14.592 0 23.04 7.296t8.448 22.272q0 13.696-9.472 21.376t-24.96 7.68M121.202 281.503c10.18 10.18 26.685 10.18 36.865 0s10.18-26.685 0-36.865l-33.179-33.179a5.213 5.213 0 0 0-7.373 0l-33.179 33.179.004.003c-9.814 10.207-9.692 26.436.365 36.493s26.287 10.179 36.493.365z"/><rect width="5" height="33" x="118.5" y="266" rx="2.5"/><path d="M695.916 957.08q8.32 0 16 1.664t11.52 4.352q.768.512.896.896t-.256 1.152l-1.664 2.816q-.384.768-.896.768-.256 0-.896-.384-3.84-2.432-10.368-3.968-6.656-1.408-14.336-1.408-12.929 0-20.352 5.888-7.424 5.887-7.424 17.28c0 8.619 2.176 14.724 6.528 18.304s10.923 5.38 19.712 5.38q12.16 0 20.864-4.23a4.8 4.8 0 0 1 2.176-.51c1.195 0 2.219.43 3.072 1.28q1.152 1.275 1.024 3.33l-2.176 33.41q0 2.94-2.944 2.94h-48.128c-1.024 0-1.749-.21-2.176-.64q-.768-.51-.768-1.92v-.9c0-1.87.981-2.81 2.944-2.81h44.416l1.792-27.52a46 46 0 0 1-9.472 2.56c-3.328.6-7.339.89-12.032.89q-14.592 0-23.04-7.29c-5.632-4.87-8.448-12.29-8.448-22.274q0-13.696 9.472-21.376t24.96-7.68M692.798 836.497c-10.18-10.18-26.685-10.18-36.865 0s-10.18 26.685 0 36.865l33.179 33.179a5.213 5.213 0 0 0 7.373 0l33.179-33.179-.004-.003c9.814-10.207 9.692-26.436-.365-36.493s-26.287-10.179-36.493-.365z"/><rect width="5" height="33" x="695.5" y="852" rx="2.5" transform="rotate(-180 695.5 852)"/></g><path stroke="#fff066" stroke-width="8" d="M525.739 658.674c-8.618 8.618-22.59 8.619-31.209.001l-2.777-2.777-2.827 2.718c-8.639 8.306-22.379 8.203-30.892-.31-8.514-8.514-8.617-22.254-.31-30.893l.137-.143 32.983-32.982a1.213 1.213 0 0 1 1.716-.001l33.179 33.179c8.618 8.618 8.618 22.59 0 31.208Z"/><rect width="5" height="33" x="489" y="646" fill="#fff066" rx="2.5"/><path stroke="#fff066" stroke-width="8" d="M357.739 658.674c-8.618 8.618-22.59 8.619-31.209.001l-2.777-2.777-2.827 2.718c-8.639 8.306-22.379 8.203-30.892-.31-8.514-8.514-8.617-22.254-.31-30.893l.137-.143 32.983-32.982a1.213 1.213 0 0 1 1.716-.001l33.179 33.179c8.618 8.618 8.618 22.59 0 31.208Z"/><rect width="5" height="33" x="321" y="646" fill="#fff066" rx="2.5"/><path stroke="#fff066" stroke-width="8" d="M613.739 496.674c-8.618 8.618-22.59 8.619-31.209.001l-2.777-2.777-2.827 2.718c-8.639 8.306-22.379 8.203-30.892-.31-8.514-8.514-8.617-22.254-.31-30.893l.137-.143 32.983-32.982a1.213 1.213 0 0 1 1.716-.001l33.179 33.179c8.618 8.618 8.618 22.59 0 31.208Z"/><rect width="5" height="33" x="577" y="484" fill="#fff066" rx="2.5"/><path stroke="#fff066" stroke-width="8" d="M277.739 496.674c-8.618 8.618-22.59 8.619-31.209.001l-2.777-2.777-2.827 2.718c-8.639 8.306-22.379 8.203-30.892-.31-8.514-8.514-8.617-22.254-.31-30.893l.137-.143 32.983-32.982a1.213 1.213 0 0 1 1.716-.001l33.179 33.179c8.618 8.618 8.618 22.59 0 31.208Z"/><rect width="5" height="33" x="241" y="484" fill="#fff066" rx="2.5"/><path stroke="#fff066" stroke-width="8" d="M445.739 496.674c-8.618 8.618-22.59 8.619-31.209.001l-2.777-2.777-2.827 2.718c-8.639 8.306-22.379 8.203-30.892-.31-8.514-8.514-8.617-22.254-.31-30.893l.137-.143 32.983-32.982a1.213 1.213 0 0 1 1.716-.001l33.179 33.179c8.618 8.618 8.618 22.59 0 31.208Z"/><rect width="5" height="33" x="409" y="484" fill="#fff066" rx="2.5"/><defs><clipPath id="a"><path fill="#fff" d="M46 48h722v1022H46z"/></clipPath></defs></svg>