<svg xmlns="http://www.w3.org/2000/svg" width="822" height="1122" fill="none" viewBox="0 0 822 1122"><rect width="822" height="1122" fill="#1a0033" rx="20"/><g fill="#fff066" clip-path="url(#a)"><path d="M119.787 160.92q-9.217 0-16.384-1.536-7.17-1.536-11.777-4.48-.767-.512-.895-.896-.129-.384.256-1.152l1.663-2.816q.384-.768.896-.768.257 0 .896.384 9.217 5.376 24.961 5.376 12.671 0 18.944-5.504 6.4-5.504 6.4-14.592 0-9.216-5.376-13.568-5.376-4.48-16.128-4.48h-11.136q-2.944 0-2.944-2.816v-.896q0-1.408.64-1.92.768-.64 2.304-.64h12.032q8.703 0 13.184-4.992 4.608-5.12 4.608-12.288 0-8.705-6.016-13.056-6.016-4.352-17.152-4.352-6.912 0-12.672 1.536-5.76 1.408-9.6 3.84-.512.384-.897.384-.511 0-.895-.768l-1.665-2.816a1.58 1.58 0 0 1-.256-.896q.001-.64.896-1.152 3.84-2.688 10.753-4.352 6.912-1.665 14.848-1.664 13.567 0 21.376 6.4 7.935 6.4 7.936 16.896 0 6.528-3.456 12.16t-9.728 8.192q8.448 2.56 12.159 7.808 3.841 5.248 3.841 13.44 0 7.553-3.712 13.44-3.585 5.887-10.752 9.216-7.04 3.328-17.152 3.328M121.202 281.503c10.18 10.18 26.685 10.18 36.865 0s10.18-26.685 0-36.865l-33.179-33.179a5.213 5.213 0 0 0-7.373 0l-33.179 33.179.004.003c-9.814 10.207-9.692 26.436.365 36.493s26.287 10.179 36.493.365z"/><rect width="5" height="33" x="118.5" y="266" rx="2.5"/><path d="M694.213 957.08q9.216 0 16.384 1.536t11.776 4.48q.768.512.896.896.129.384-.256 1.152l-1.664 2.816q-.383.768-.896.768-.255 0-.896-.384-9.216-5.376-24.96-5.376-12.671 0-18.944 5.504-6.4 5.504-6.4 14.592 0 9.216 5.376 13.568 5.376 4.48 16.128 4.478h11.136q2.944 0 2.944 2.82v.89q0 1.41-.64 1.92c-.512.43-1.28.64-2.304.64h-12.032c-5.802 0-10.197 1.67-13.184 5-3.072 3.41-4.608 7.51-4.608 12.28 0 5.81 2.006 10.16 6.016 13.06q6.016 4.35 17.152 4.35 6.912 0 12.672-1.53 5.76-1.41 9.6-3.84.513-.39.896-.39c.342 0 .64.26.896.77l1.664 2.82c.171.25.256.55.256.89 0 .43-.298.81-.896 1.15-2.56 1.8-6.144 3.25-10.752 4.36s-9.557 1.66-14.848 1.66c-9.045 0-16.17-2.13-21.376-6.4-5.29-4.27-7.936-9.9-7.936-16.9 0-4.35 1.152-8.4 3.456-12.16q3.456-5.625 9.728-8.19c-5.632-1.7-9.685-4.31-12.159-7.806q-3.841-5.249-3.841-13.44 0-7.552 3.712-13.44 3.585-5.887 10.752-9.216 7.04-3.328 17.152-3.328M692.798 836.497c-10.18-10.18-26.685-10.18-36.865 0s-10.18 26.685 0 36.865l33.179 33.179a5.213 5.213 0 0 0 7.373 0l33.179-33.179-.004-.003c9.814-10.207 9.692-26.436-.365-36.493s-26.287-10.179-36.493-.365z"/><rect width="5" height="33" x="695.5" y="852" rx="2.5" transform="rotate(-180 695.5 852)"/></g><path stroke="#fff066" stroke-width="8" d="M361.739 658.674c-8.618 8.618-22.59 8.619-31.209.001l-2.777-2.777-2.827 2.718c-8.639 8.306-22.379 8.203-30.892-.31-8.514-8.514-8.617-22.254-.31-30.893l.137-.143 32.983-32.982a1.213 1.213 0 0 1 1.716-.001l33.179 33.179c8.618 8.618 8.618 22.59 0 31.208Z"/><rect width="5" height="33" x="325" y="646" fill="#fff066" rx="2.5"/><path stroke="#fff066" stroke-width="8" d="M529.739 658.674c-8.618 8.618-22.59 8.619-31.209.001l-2.777-2.777-2.827 2.718c-8.639 8.306-22.379 8.203-30.892-.31-8.514-8.514-8.617-22.254-.31-30.893l.137-.143 32.983-32.982a1.213 1.213 0 0 1 1.716-.001l33.179 33.179c8.618 8.618 8.618 22.59 0 31.208Z"/><rect width="5" height="33" x="493" y="646" fill="#fff066" rx="2.5"/><path stroke="#fff066" stroke-width="8" d="M445.739 496.674c-8.618 8.618-22.59 8.619-31.209.001l-2.777-2.777-2.827 2.718c-8.639 8.306-22.379 8.203-30.892-.31-8.514-8.514-8.617-22.254-.31-30.893l.137-.143 32.983-32.982a1.213 1.213 0 0 1 1.716-.001l33.179 33.179c8.618 8.618 8.618 22.59 0 31.208Z"/><rect width="5" height="33" x="409" y="484" fill="#fff066" rx="2.5"/><defs><clipPath id="a"><path fill="#fff" d="M46 48h722v1022H46z"/></clipPath></defs></svg>