<svg xmlns="http://www.w3.org/2000/svg" width="822" height="1122" fill="none" viewBox="0 0 822 1122"><rect width="822" height="1122" fill="#1a0033" rx="20"/><g fill="#b366ff" clip-path="url(#a)"><path d="M137.898 159q-2.944 0-2.944-2.944V138.52H87.978q-2.56 0-2.56-2.304v-.896q0-1.792 1.151-3.072L135.21 73.24q1.024-1.28 2.56-1.28h1.152q2.943 0 2.944 2.944v57.344h11.776q2.943 0 2.944 2.816v.896q0 1.408-.768 2.048-.64.512-2.176.512h-11.776v17.536q0 2.944-2.944 2.944zm-2.944-26.752V82.84l-40.833 49.408zM112.679 208.481c3.959-5.938 12.683-5.938 16.642 0l21.981 32.972a10 10 0 0 1 0 11.094l-21.981 32.972c-3.959 5.938-12.683 5.938-16.642 0l-21.981-32.972a10 10 0 0 1 0-11.094zM676.102 959q2.944 0 2.944 2.944v17.536h46.976q2.56 0 2.56 2.304v.896q0 1.793-1.152 3.072l-48.64 59.008c-.682.85-1.536 1.28-2.56 1.28h-1.152q-2.943 0-2.944-2.94v-57.348h-11.776q-2.943 0-2.944-2.816v-.896q0-1.408.768-2.048.64-.512 2.176-.512h11.776v-17.536q0-2.944 2.944-2.944zm2.944 26.752v49.408l40.832-49.408zM701.321 909.519c-3.959 5.938-12.683 5.938-16.642 0l-21.981-32.972a10 10 0 0 1 0-11.094l21.981-32.972c3.959-5.938 12.683-5.938 16.642 0l21.981 32.972a10 10 0 0 1 0 11.094z"/></g><path stroke="#b366ff" stroke-width="8" d="M406.008 605.699c2.375-3.562 7.609-3.562 9.984 0l21.982 32.973a6 6 0 0 1 0 6.656l-21.982 32.973c-2.375 3.562-7.609 3.562-9.984 0l-21.982-32.973a6 6 0 0 1 0-6.656zM574.008 443.699c2.375-3.562 7.609-3.562 9.984 0l21.982 32.973a6 6 0 0 1 0 6.656l-21.982 32.973c-2.375 3.562-7.609 3.562-9.984 0l-21.982-32.973a6 6 0 0 1 0-6.656zM238.008 443.699c2.375-3.562 7.609-3.562 9.984 0l21.982 32.973a6 6 0 0 1 0 6.656l-21.982 32.973c-2.375 3.562-7.609 3.562-9.984 0l-21.982-32.973a6 6 0 0 1 0-6.656zM406.008 443.699c2.375-3.562 7.609-3.562 9.984 0l21.982 32.973a6 6 0 0 1 0 6.656l-21.982 32.973c-2.375 3.562-7.609 3.562-9.984 0l-21.982-32.973a6 6 0 0 1 0-6.656z"/><defs><clipPath id="a"><path fill="#fff" d="M46 48h722v1022H46z"/></clipPath></defs></svg>