<svg xmlns="http://www.w3.org/2000/svg" width="822" height="1122" fill="none" viewBox="0 0 822 1122"><rect width="822" height="1122" fill="#1a0033" rx="20"/><path fill="#b366ff" d="M118.254 160.92q-7.169 0-13.056-1.536-5.76-1.536-9.728-4.224-.767-.512-.896-.896-.128-.384.256-1.152l1.664-2.816q.384-.768.896-.768.256 0 .896.384 8.064 5.12 20.096 5.12 12.416 0 19.968-8.96 7.68-9.088 8.704-25.472-9.984 12.16-26.752 12.16-9.473 0-16.896-3.456-7.296-3.584-11.52-10.112-4.096-6.656-4.096-15.872 0-16.384 9.344-24.832t25.472-8.448q14.592 0 23.04 9.472 8.576 9.344 8.576 29.568 0 28.416-10.496 40.192-10.496 11.648-25.472 11.648m3.2-34.176q6.016 0 12.032-2.56 6.016-2.688 9.856-7.68 3.968-5.12 3.968-12.288 0-14.08-6.528-21.12-6.528-7.168-18.176-7.168-28.16 0-28.16 27.392 0 11.52 7.04 17.536 7.04 5.888 19.968 5.888M112.679 208.481c3.959-5.938 12.683-5.938 16.642 0l21.981 32.972a10 10 0 0 1 0 11.094l-21.981 32.972c-3.959 5.938-12.683 5.938-16.642 0l-21.981-32.972a10 10 0 0 1 0-11.094zM695.746 957.08q7.168 0 13.056 1.536 5.76 1.536 9.728 4.224.768.512.896.896t-.256 1.152l-1.664 2.816q-.384.768-.896.768-.256 0-.896-.384-8.064-5.12-20.096-5.12-12.415 0-19.968 8.96-7.68 9.088-8.704 25.472 9.984-12.16 26.752-12.16 9.473 0 16.896 3.456 7.296 3.584 11.52 10.112 4.096 6.663 4.096 15.872c0 10.92-3.115 19.2-9.344 24.83s-14.72 8.45-25.472 8.45c-9.728 0-17.408-3.16-23.04-9.47-5.717-6.23-8.576-16.09-8.576-29.57q0-28.416 10.496-40.192 10.496-11.648 25.472-11.648m-3.2 34.176q-6.016 0-12.032 2.56-6.016 2.687-9.856 7.684c-2.645 3.41-3.968 7.51-3.968 12.28q0 14.085 6.528 21.12 6.528 7.17 18.176 7.17 28.16 0 28.16-27.39c0-7.68-2.347-13.53-7.04-17.536q-7.04-5.888-19.968-5.888M701.321 909.519c-3.959 5.938-12.683 5.938-16.642 0l-21.981-32.972a10 10 0 0 1 0-11.094l21.981-32.972c3.959-5.938 12.683-5.938 16.642 0l21.981 32.972a10 10 0 0 1 0 11.094z"/><path stroke="#b366ff" stroke-width="8" d="M406.008 524.699c2.375-3.562 7.609-3.562 9.984 0l21.982 32.973a6 6 0 0 1 0 6.656l-21.982 32.973c-2.375 3.562-7.609 3.562-9.984 0l-21.982-32.973a6 6 0 0 1 0-6.656zM238.008 686.699c2.375-3.562 7.609-3.562 9.984 0l21.982 32.973a6 6 0 0 1 0 6.656l-21.982 32.973c-2.375 3.562-7.609 3.562-9.984 0l-21.982-32.973a6 6 0 0 1 0-6.656zM402.008 686.699c2.375-3.562 7.609-3.562 9.984 0l21.982 32.973a6 6 0 0 1 0 6.656l-21.982 32.973c-2.375 3.562-7.609 3.562-9.984 0l-21.982-32.973a6 6 0 0 1 0-6.656zM574.008 686.699c2.375-3.562 7.609-3.562 9.984 0l21.982 32.973a6 6 0 0 1 0 6.656l-21.982 32.973c-2.375 3.562-7.609 3.562-9.984 0l-21.982-32.973a6 6 0 0 1 0-6.656zM574.008 524.699c2.375-3.562 7.609-3.562 9.984 0l21.982 32.973a6 6 0 0 1 0 6.656l-21.982 32.973c-2.375 3.562-7.609 3.562-9.984 0l-21.982-32.973a6 6 0 0 1 0-6.656zM238.008 524.699c2.375-3.562 7.609-3.562 9.984 0l21.982 32.973a6 6 0 0 1 0 6.656l-21.982 32.973c-2.375 3.562-7.609 3.562-9.984 0l-21.982-32.973a6 6 0 0 1 0-6.656zM574.008 362.699c2.375-3.562 7.609-3.562 9.984 0l21.982 32.973a6 6 0 0 1 0 6.656l-21.982 32.973c-2.375 3.562-7.609 3.562-9.984 0l-21.982-32.973a6 6 0 0 1 0-6.656zM238.008 362.699c2.375-3.562 7.609-3.562 9.984 0l21.982 32.973a6 6 0 0 1 0 6.656l-21.982 32.973c-2.375 3.562-7.609 3.562-9.984 0l-21.982-32.973a6 6 0 0 1 0-6.656zM406.008 362.699c2.375-3.562 7.609-3.562 9.984 0l21.982 32.973a6 6 0 0 1 0 6.656l-21.982 32.973c-2.375 3.562-7.609 3.562-9.984 0l-21.982-32.973a6 6 0 0 1 0-6.656z"/></svg>