<svg xmlns="http://www.w3.org/2000/svg" width="822" height="1122" fill="none" viewBox="0 0 822 1122"><rect width="822" height="1122" fill="#1a0033" rx="20"/><g fill="#fff066" clip-path="url(#a)"><path d="M117.487 160.92q-12.672 0-20.608-4.864-1.408-.768-.64-2.048l1.792-2.816q.384-.768.896-.768.384 0 .896.384 3.072 2.048 7.424 3.2a41.2 41.2 0 0 0 9.216 1.024q9.216 0 13.696-4.48 4.608-4.48 4.608-13.568v-62.08q0-2.944 2.944-2.944h1.024q2.944 0 2.944 2.944v61.824q0 10.88-6.272 17.536-6.144 6.656-17.92 6.656M121.202 281.503c10.18 10.18 26.685 10.18 36.865 0s10.18-26.685 0-36.865l-33.179-33.179a5.213 5.213 0 0 0-7.373 0l-33.179 33.179.004.003c-9.814 10.207-9.692 26.437.365 36.494s26.287 10.178 36.493.365z"/><rect width="5" height="33" x="118.5" y="266" rx="2.5"/><path d="M696.513 957.08q12.672 0 20.608 4.864 1.408.768.64 2.048l-1.792 2.816q-.384.768-.896.768-.384 0-.896-.384-3.072-2.048-7.424-3.2a41.2 41.2 0 0 0-9.216-1.024q-9.216 0-13.696 4.48-4.608 4.48-4.608 13.568v62.084q0 2.94-2.944 2.94h-1.024q-2.944 0-2.944-2.94v-61.828q0-10.88 6.272-17.536 6.144-6.656 17.92-6.656M692.798 836.497c-10.18-10.18-26.685-10.18-36.865 0s-10.18 26.685 0 36.865l33.179 33.179a5.213 5.213 0 0 0 7.373 0l33.179-33.179-.004-.003c9.814-10.207 9.692-26.436-.365-36.493s-26.287-10.179-36.493-.365z"/><rect width="5" height="33" x="695.5" y="852" rx="2.5" transform="rotate(-180 695.5 852)"/></g><path fill="#e6cf00" d="M527.781 240.13h-90.107c-11.046 0-20 8.954-20 20v72.592c0 4.012 1.206 7.932 3.463 11.249l66.711 98.074a20 20 0 0 0 16.536 8.751h43.706c11.045 0 20-8.954 20-20v-41.38c0-6.511 4.05-12.335 10.154-14.6 8.725-3.238 12.681-13.355 8.467-21.653l-17.978-35.399a20 20 0 0 1-1.101-2.613l-20.917-61.464a20 20 0 0 0-18.934-13.557"/><path fill="#fffacc" d="M535.539 407.8a3.126 3.126 0 0 1 2.952-3.121l24.764-1.375a4.273 4.273 0 1 1 .079 8.537l-24.785-.918a3.126 3.126 0 0 1-3.01-3.123"/><path fill="#e6cf00" d="M540.91 233.864H417.673l-12.689-23.715c-2.495-4.663.884-10.302 6.172-10.302h133.96c5.051 0 8.439 5.186 6.41 9.812z"/><path fill="#fffacc" d="m544.789 240.13 5.371 20.589h-78.192a20 20 0 0 0-19.539 15.729l-12.213 55.864a20 20 0 0 0-.461 4.271v94.213c0 11.046-8.955 20-20 20h-59.313c-13.318 0-22.916-12.774-19.209-25.566l25.74-88.84a20 20 0 0 1 1.528-3.779l48.874-92.481z"/><path fill="#fffacc" fill-rule="evenodd" d="M528.991 300.406a1 1 0 0 0-.775.368l-4.111 5.04c-.678.832.252 2.002 1.216 1.53l2.986-1.465c.137-.067.288-.102.441-.102h24.396a2.687 2.687 0 0 0 0-5.371z" clip-rule="evenodd"/><path fill="#998a00" d="m490.183 456.465-45.356-64.453v112.793h81.462l-8.654-48.34z"/><path fill="#e6cf00" d="M437.666 514.652v-33.42h-46.251l48.862 162.923h97.724l48.862-162.923h-57.889l6.266 33.42zM293.541 882.87h90.108c11.046 0 20-8.955 20-20v-72.593c0-4.012-1.207-7.931-3.463-11.248l-66.711-98.074a20 20 0 0 0-16.537-8.751h-43.705c-11.046 0-20 8.954-20 20v41.379a15.575 15.575 0 0 1-10.155 14.601c-8.725 3.238-12.681 13.355-8.467 21.653l17.978 35.399q.644 1.268 1.102 2.613l20.917 61.464a20 20 0 0 0 18.933 13.557"/><path fill="#fffacc" d="M285.783 715.2a3.124 3.124 0 0 1-2.951 3.12l-24.765 1.376a4.273 4.273 0 1 1-.079-8.537l24.786.918a3.124 3.124 0 0 1 3.009 3.123"/><path fill="#e6cf00" d="M280.413 889.136h123.236l12.689 23.714c2.495 4.663-.883 10.303-6.172 10.303H276.207c-5.051 0-8.44-5.186-6.411-9.812z"/><path fill="#fffacc" d="m276.533 882.87-5.371-20.59h78.193a20 20 0 0 0 19.538-15.728l12.213-55.864c.307-1.403.462-2.835.462-4.271v-94.213c0-11.046 8.954-20 20-20h59.312c13.319 0 22.917 12.773 19.21 25.566l-25.741 88.84a20 20 0 0 1-1.527 3.779l-48.875 92.481z"/><path fill="#fffacc" fill-rule="evenodd" d="M292.332 822.594a1 1 0 0 0 .775-.368l4.11-5.04c.678-.832-.252-2.003-1.215-1.53l-2.987 1.465a1 1 0 0 1-.44.102h-24.397a2.686 2.686 0 0 0 0 5.371z" clip-rule="evenodd"/><path fill="#998a00" d="m331.139 666.534 45.356 64.453V618.195h-81.461l8.653 48.339z"/><path fill="#e6cf00" d="M383.657 608.347v33.421h46.251l-48.862-162.923h-97.724L234.46 641.768h57.888l-6.266-33.421z"/><defs><clipPath id="a"><path fill="#fff" d="M46 48h722v1022H46z"/></clipPath></defs></svg>