<svg xmlns="http://www.w3.org/2000/svg" width="822" height="1122" fill="none" viewBox="0 0 822 1122"><rect width="822" height="1122" fill="#1a0033" rx="20"/><g fill="#fff066" clip-path="url(#a)"><path d="M101.998 159q-.896 0-.896-.768 0-.64.512-1.536l42.112-78.464H92.141q-2.943 0-2.943-2.816v-.896q0-1.408.64-1.92.768-.64 2.303-.64h57.857q2.816 0 2.816 2.56 0 .896-.64 2.176a36 36 0 0 1-1.28 2.56l-42.24 78.976q-.256.512-.64.64-.257.128-.896.128zM141.309 231.337v-.004c0-11.782-9.224-21.333-20.603-21.333s-20.603 9.551-20.603 21.333c-11.379 0-20.603 9.552-20.603 21.334S88.724 274 100.103 274c10.386 0 18.977-7.957 20.397-18.305C121.92 266.043 130.511 274 140.897 274c11.379 0 20.603-9.551 20.603-21.333 0-11.64-9.002-21.102-20.191-21.33"/><rect width="5" height="33" x="118.5" y="251" rx="2.5"/><path d="M712.002 959q.896 0 .896.768 0 .64-.512 1.536l-42.112 78.466h51.584c1.963 0 2.944.94 2.944 2.81v.9q0 1.41-.64 1.92c-.512.43-1.28.64-2.304.64h-57.856c-1.877 0-2.816-.85-2.816-2.56 0-.6.214-1.32.64-2.18.342-.76.768-1.62 1.28-2.56l42.24-78.972q.256-.512.64-.64.257-.128.896-.128zM672.691 886.663v.004c0 11.782 9.224 21.333 20.603 21.333s20.603-9.551 20.603-21.333c11.379 0 20.603-9.552 20.603-21.334S725.276 844 713.897 844c-10.386 0-18.977 7.957-20.397 18.305C692.08 851.957 683.489 844 673.103 844c-11.379 0-20.603 9.551-20.603 21.333 0 11.64 9.002 21.102 20.191 21.33"/><rect width="5" height="33" x="695.5" y="867" rx="2.5" transform="rotate(-180 695.5 867)"/></g><path stroke="#fff066" stroke-width="8" d="M411.779 520.935c13.001 0 23.889 11.163 23.889 25.377v3.923l3.918.081c12.786.265 23.414 11.333 23.414 25.372 0 14.214-10.889 25.377-23.89 25.377-11.873 0-21.966-9.289-23.646-21.741h-7.928c-1.68 12.452-11.773 21.741-23.646 21.741-13.001 0-23.89-11.163-23.89-25.377s10.889-25.376 23.89-25.376h4v-4c0-14.214 10.889-25.377 23.889-25.377Z"/><path fill="#fff066" d="M408.307 583.026a3.041 3.041 0 1 1 6.082 0v30.933a3.041 3.041 0 1 1-6.082 0z"/><path stroke="#fff066" stroke-width="8" d="M411.779 682.935c13.001 0 23.889 11.163 23.889 25.377v3.923l3.918.081c12.786.265 23.414 11.333 23.414 25.372 0 14.214-10.889 25.377-23.89 25.377-11.873 0-21.966-9.289-23.646-21.741h-7.928c-1.68 12.452-11.773 21.741-23.646 21.741-13.001 0-23.89-11.163-23.89-25.377s10.889-25.376 23.89-25.376h4v-4c0-14.214 10.889-25.377 23.889-25.377Z"/><path fill="#fff066" d="M408.307 745.026a3.041 3.041 0 1 1 6.082 0v30.933a3.041 3.041 0 1 1-6.082 0z"/><path stroke="#fff066" stroke-width="8" d="M579.779 520.935c13.001 0 23.889 11.163 23.889 25.377v3.923l3.918.081c12.786.265 23.414 11.333 23.414 25.372 0 14.214-10.889 25.377-23.89 25.377-11.873 0-21.966-9.289-23.646-21.741h-7.928c-1.68 12.452-11.773 21.741-23.646 21.741-13.001 0-23.89-11.163-23.89-25.377s10.889-25.376 23.89-25.376h4v-4c0-14.214 10.889-25.377 23.889-25.377Z"/><path fill="#fff066" d="M576.307 583.026a3.041 3.041 0 1 1 6.082 0v30.933a3.041 3.041 0 1 1-6.082 0z"/><path stroke="#fff066" stroke-width="8" d="M243.779 520.935c13.001 0 23.889 11.163 23.889 25.377v3.923l3.918.081c12.786.265 23.414 11.333 23.414 25.372 0 14.214-10.889 25.377-23.89 25.377-11.873 0-21.966-9.289-23.646-21.741h-7.928c-1.68 12.452-11.773 21.741-23.646 21.741-13.001 0-23.89-11.163-23.89-25.377s10.889-25.376 23.89-25.376h4v-4c0-14.214 10.889-25.377 23.889-25.377Z"/><path fill="#fff066" d="M240.307 583.026a3.041 3.041 0 1 1 6.082 0v30.933a3.041 3.041 0 1 1-6.082 0z"/><path stroke="#fff066" stroke-width="8" d="M579.779 358.935c13.001 0 23.889 11.163 23.889 25.377v3.923l3.918.081c12.786.265 23.414 11.333 23.414 25.372 0 14.214-10.889 25.377-23.89 25.377-11.873 0-21.966-9.289-23.646-21.741h-7.928c-1.68 12.452-11.773 21.741-23.646 21.741-13.001 0-23.89-11.163-23.89-25.377s10.889-25.376 23.89-25.376h4v-4c0-14.214 10.889-25.377 23.889-25.377Z"/><path fill="#fff066" d="M576.307 421.026a3.041 3.041 0 1 1 6.082 0v30.933a3.041 3.041 0 1 1-6.082 0z"/><path stroke="#fff066" stroke-width="8" d="M243.779 358.935c13.001 0 23.889 11.163 23.889 25.377v3.923l3.918.081c12.786.265 23.414 11.333 23.414 25.372 0 14.214-10.889 25.377-23.89 25.377-11.873 0-21.966-9.289-23.646-21.741h-7.928c-1.68 12.452-11.773 21.741-23.646 21.741-13.001 0-23.89-11.163-23.89-25.377s10.889-25.376 23.89-25.376h4v-4c0-14.214 10.889-25.377 23.889-25.377Z"/><path fill="#fff066" d="M240.307 421.026a3.041 3.041 0 1 1 6.082 0v30.933a3.041 3.041 0 1 1-6.082 0z"/><path stroke="#fff066" stroke-width="8" d="M411.779 358.935c13.001 0 23.889 11.163 23.889 25.377v3.923l3.918.081c12.786.265 23.414 11.333 23.414 25.372 0 14.214-10.889 25.377-23.89 25.377-11.873 0-21.966-9.289-23.646-21.741h-7.928c-1.68 12.452-11.773 21.741-23.646 21.741-13.001 0-23.89-11.163-23.89-25.377s10.889-25.376 23.89-25.376h4v-4c0-14.214 10.889-25.377 23.889-25.377Z"/><path fill="#fff066" d="M408.307 421.026a3.041 3.041 0 1 1 6.082 0v30.933a3.041 3.041 0 1 1-6.082 0z"/><defs><clipPath id="a"><path fill="#fff" d="M46 48h722v1022H46z"/></clipPath></defs></svg>