<svg xmlns="http://www.w3.org/2000/svg" width="822" height="1122" fill="none" viewBox="0 0 822 1122"><rect width="822" height="1122" fill="#1a0033" rx="20"/><g fill="#b366ff" clip-path="url(#a)"><path d="M94.359 159q-2.944 0-2.944-2.944v-4.096q0-8.32 7.04-16.64t19.84-14.72q9.856-4.864 15.232-8.576 5.376-3.84 7.808-8.192 2.56-4.352 2.56-10.624 0-8.576-6.528-12.928-6.4-4.352-16.256-4.352-14.72 0-23.168 5.376-.64.384-.896.384-.512 0-.896-.768l-1.664-2.816a1.58 1.58 0 0 1-.256-.896q0-.64.896-1.152 3.84-2.688 10.752-4.352 7.04-1.665 15.232-1.664 8.32 0 14.976 2.688t10.496 7.936q3.968 5.248 3.968 12.544 0 7.552-3.2 13.056t-8.96 9.728-14.976 8.704Q111 130.84 104.599 138.008q-6.272 7.04-6.272 14.72h48.256q2.944 0 2.944 2.816v.896q0 1.408-.768 2.048-.64.512-2.176.512zM112.679 208.481c3.959-5.938 12.683-5.938 16.642 0l21.981 32.972a10 10 0 0 1 0 11.094l-21.981 32.972c-3.959 5.938-12.683 5.938-16.642 0l-21.981-32.972a10 10 0 0 1 0-11.094zM719.641 959q2.944 0 2.944 2.944v4.096q0 8.32-7.04 16.64t-19.84 14.72q-9.856 4.86-15.232 8.58-5.376 3.84-7.808 8.19-2.56 4.35-2.56 10.62 0 8.58 6.528 12.93 6.4 4.35 16.256 4.35 14.72 0 23.168-5.37.64-.39.896-.39c.341 0 .64.26.896.77l1.664 2.82c.171.25.256.55.256.89 0 .43-.299.81-.896 1.15-2.56 1.8-6.144 3.25-10.752 4.36-4.693 1.11-9.771 1.66-15.232 1.66-5.547 0-10.539-.9-14.976-2.69s-7.936-4.44-10.496-7.93c-2.645-3.5-3.968-7.68-3.968-12.55q0-7.545 3.2-13.05c2.133-3.67 5.12-6.92 8.96-9.73q5.76-4.226 14.976-8.706 12.416-6.144 18.816-13.312 6.272-7.04 6.272-14.72h-48.256q-2.944 0-2.944-2.816v-.896q0-1.408.768-2.048.64-.512 2.176-.512zM701.321 909.519c-3.959 5.938-12.683 5.938-16.642 0l-21.981-32.972a10 10 0 0 1 0-11.094l21.981-32.972c3.959-5.938 12.683-5.938 16.642 0l21.981 32.972a10 10 0 0 1 0 11.094z"/></g><path stroke="#b366ff" stroke-width="8" d="M322.008 522.699c2.375-3.562 7.609-3.562 9.984 0l21.982 32.973a6 6 0 0 1 0 6.656l-21.982 32.973c-2.375 3.562-7.609 3.562-9.984 0l-21.982-32.973a6 6 0 0 1 0-6.656zM490.008 522.699c2.375-3.562 7.609-3.562 9.984 0l21.982 32.973a6 6 0 0 1 0 6.656l-21.982 32.973c-2.375 3.562-7.609 3.562-9.984 0l-21.982-32.973a6 6 0 0 1 0-6.656z"/><defs><clipPath id="a"><path fill="#fff" d="M46 48h722v1022H46z"/></clipPath></defs></svg>