<svg xmlns="http://www.w3.org/2000/svg" width="822" height="1122" fill="none" viewBox="0 0 822 1122"><rect width="822" height="1122" fill="#1a0033" rx="20"/><g clip-path="url(#a)"><path fill="#fff066" d="M72.112 160.92q-12.672 0-20.608-4.864-1.408-.768-.64-2.048l1.792-2.816q.384-.768.896-.768.384 0 .896.384 3.072 2.048 7.424 3.2a41.2 41.2 0 0 0 9.216 1.024q9.217 0 13.696-4.48 4.608-4.48 4.608-13.568v-62.08q0-2.944 2.944-2.944h1.024q2.944 0 2.944 2.944v61.824q0 10.88-6.272 17.536-6.145 6.656-17.92 6.656m72.69 0q-15.744 0-24.192-8.704-8.32-8.832-8.32-23.936t8.32-23.808q8.448-8.832 24.192-8.832t24.064 8.832q8.448 8.705 8.448 23.808t-8.448 23.936q-8.32 8.704-24.064 8.704m0-5.888q12.545 0 19.2-6.912 6.656-7.04 6.656-19.84t-6.656-19.712q-6.656-7.04-19.2-7.04t-19.2 7.04q-6.656 6.912-6.656 19.712t6.656 19.84q6.656 6.912 19.2 6.912M196.919 159q-2.944 0-2.944-2.944V74.904q0-2.944 2.944-2.944h1.024q2.944 0 2.944 2.944v81.152q0 2.944-2.944 2.944zm41.984 0q-.896 0-1.28-.128-.257-.128-.768-.64l-28.16-28.16-.896-.896q-.64-.768-.896-1.28-.256-.64-.256-1.536 0-1.024.384-1.664t.896-1.152q.511-.64.768-.896l26.88-24.32q.512-.512.768-.64.384-.128 1.28-.128h4.608q1.28 0 1.28.896 0 .511-.896 1.408l-28.928 26.496 30.208 30.336q.896.896.896 1.408 0 .896-1.28.896zm53.548 1.92q-14.592 0-24.064-7.68t-9.472-23.68q0-16.64 8.448-25.216 8.448-8.704 23.808-8.704 30.72 0 30.72 33.152 0 1.152-.64 1.92-.64.64-1.92.64h-53.632q0 11.648 7.296 17.664 7.424 6.016 20.48 6.016 6.016 0 11.264-1.408 5.376-1.408 9.088-3.968.512-.384.896-.384.512 0 .896.768l1.664 2.816q.256.384.256.896t-.896 1.152q-4.736 3.072-11.264 4.48a55.2 55.2 0 0 1-12.928 1.536m22.784-35.84q0-11.264-6.016-17.408-6.017-6.144-18.048-6.144-12.16 0-18.816 6.4t-6.656 17.152zM341.419 159q-2.944 0-2.944-2.944v-55.552q0-1.537.512-2.176.512-.768 1.92-.768h1.28q1.409 0 1.92.768.512.64.512 2.176v5.504q3.456-4.864 8.704-7.552 5.376-2.816 12.544-2.816 1.536 0 3.072.256 1.536.255 2.176.64 1.024.64.768 1.408l-.512 3.712q-.128 1.152-1.408.64-2.56-.768-5.76-.768-8.064 0-13.44 4.608-5.376 4.48-5.376 12.672v37.248q0 2.944-2.944 2.944zM741.888 957.08q12.672 0 20.608 4.864 1.408.768.64 2.048l-1.792 2.816q-.384.768-.896.768-.384 0-.896-.384-3.072-2.048-7.424-3.2a41.2 41.2 0 0 0-9.216-1.024q-9.216 0-13.696 4.48-4.608 4.48-4.608 13.568v62.084q0 2.94-2.944 2.94h-1.024q-2.944 0-2.944-2.94v-61.828q0-10.88 6.272-17.536 6.144-6.656 17.92-6.656m-72.69 0q15.744 0 24.192 8.704 8.32 8.832 8.32 23.936c0 10.069-2.773 18.01-8.32 23.81-5.632 5.89-13.696 8.83-24.192 8.83s-18.517-2.94-24.064-8.83c-5.632-5.8-8.448-13.741-8.448-23.81q0-15.104 8.448-23.936 8.32-8.704 24.064-8.704m0 5.888q-12.544 0-19.2 6.912-6.656 7.04-6.656 19.84c0 8.533 2.219 15.1 6.656 19.71 4.437 4.7 10.837 7.04 19.2 7.04s14.763-2.34 19.2-7.04c4.437-4.61 6.656-11.177 6.656-19.71q0-12.8-6.656-19.84-6.656-6.912-19.2-6.912M617.081 959q2.944 0 2.944 2.944v81.156q0 2.94-2.944 2.94h-1.024q-2.944 0-2.944-2.94v-81.156q0-2.944 2.944-2.944zm-41.984 0q.896 0 1.28.128.256.128.768.64l28.16 28.16.896.896q.64.768.896 1.28.256.64.256 1.536 0 1.024-.384 1.664a6 6 0 0 1-.896 1.152q-.511.64-.768.896l-26.88 24.318c-.341.34-.597.56-.768.64-.256.09-.683.13-1.28.13h-4.608q-1.28 0-1.28-.9c0-.34.299-.81.896-1.4l28.928-26.5-30.208-30.336q-.896-.896-.896-1.408 0-.896 1.28-.896zm-53.548-1.92q14.592 0 24.064 7.68t9.472 23.68q0 16.64-8.448 25.22-8.448 8.7-23.808 8.7-30.72 0-30.72-33.152 0-1.152.64-1.92.64-.64 1.92-.64h53.632q0-11.647-7.296-17.664-7.424-6.016-20.48-6.016-6.016 0-11.264 1.408-5.376 1.408-9.088 3.968-.512.384-.896.384-.512 0-.896-.768l-1.664-2.816a1.58 1.58 0 0 1-.256-.896q0-.512.896-1.152 4.736-3.072 11.264-4.48a55.2 55.2 0 0 1 12.928-1.536m-22.784 35.84c0 7.51 2.005 13.31 6.016 17.41 4.011 4.09 10.027 6.14 18.048 6.14 8.107 0 14.379-2.13 18.816-6.4 4.437-4.26 6.656-9.98 6.656-17.15zM472.581 959q2.944 0 2.944 2.944v55.556c0 1.02-.171 1.75-.512 2.17-.341.51-.981.77-1.92.77h-1.28c-.939 0-1.579-.26-1.92-.77-.341-.42-.512-1.15-.512-2.17v-5.51c-2.304 3.24-5.205 5.76-8.704 7.55q-5.376 2.82-12.544 2.82c-1.024 0-2.048-.09-3.072-.26s-1.749-.38-2.176-.64c-.683-.42-.939-.89-.768-1.4l.512-3.72c.085-.76.555-.98 1.408-.64 1.707.52 3.627.77 5.76.77 5.376 0 9.856-1.53 13.44-4.61 3.584-2.98 5.376-7.21 5.376-12.668v-37.248q0-2.944 2.944-2.944zM406.5 382.294c-109.503-.001-183.685-127.622-188.892-60.119C189.445 687.283 359.26 808.474 406.5 808.474z"/><path fill="#998a00" d="M324.818 505.23c23.084-.459 37.14 40.616 41.475 55.515.664 2.285-1.53 4.305-3.804 3.605-8.107-2.496-24.158-6.872-37.671-7.109-12.922-.227-28.052 4.221-35.901 6.883-2.284.775-4.569-1.246-3.928-3.571 4.099-14.888 17.204-54.872 39.829-55.323"/><path fill="#fffacc" d="M407.208 722.084c-54.499 0-94.943-56.33-110.919-87.716-1.487-2.922 1.461-4.706 3.568-2.195 16.701 19.902 45.435 49.36 107.351 49.36z"/><path fill="#998a00" d="M275.487 486.153c-.391-1.186-.007-2.452.993-3.173 5.209-3.748 21.78-15.214 34.889-19.186 14.087-4.267 36.337-3.565 43.222-3.222a3.07 3.07 0 0 1 2.754 2.104l.804 2.438c.632 1.917-.779 3.84-2.818 3.861-8.363.09-27.703.726-40.438 4.516-11.965 3.561-27.244 12.628-33.933 16.804-1.698 1.06-4.036.214-4.669-1.707z"/><path fill="#fffacc" d="M406.5 382.294c109.503-.001 183.685-127.622 188.892-60.119C623.555 687.283 453.74 808.474 406.5 808.474z"/><path fill="#998a00" d="M488.182 505.23c-23.084-.459-37.14 40.616-41.475 55.515-.664 2.285 1.53 4.305 3.804 3.605 8.107-2.496 24.158-6.872 37.671-7.109 12.922-.227 28.052 4.221 35.901 6.883 2.284.775 4.569-1.246 3.928-3.571-4.099-14.888-17.204-54.872-39.829-55.323M405.792 722.084c54.499 0 94.943-56.33 110.919-87.716 1.487-2.922-1.461-4.706-3.568-2.195-16.701 19.902-45.435 49.36-107.351 49.36zM537.513 486.153c.391-1.186.007-2.452-.993-3.173-5.209-3.748-21.78-15.214-34.889-19.186-14.087-4.267-36.337-3.565-43.222-3.222a3.07 3.07 0 0 0-2.754 2.104l-.804 2.438c-.632 1.917.779 3.84 2.818 3.861 8.363.09 27.703.726 40.438 4.516 11.965 3.561 27.244 12.628 33.933 16.804 1.698 1.06 4.036.214 4.669-1.707z"/></g><defs><clipPath id="a"><path fill="#fff" d="M46 48h722v1022H46z"/></clipPath></defs></svg>