<svg xmlns="http://www.w3.org/2000/svg" width="822" height="1122" fill="none" viewBox="0 0 822 1122"><rect width="822" height="1122" fill="#1a0033" rx="20"/><g fill="#fff066" clip-path="url(#a)"><path d="M137.898 159q-2.944 0-2.944-2.944V138.52H87.978q-2.56 0-2.56-2.304v-.896q0-1.792 1.151-3.072L135.21 73.24q1.024-1.28 2.56-1.28h1.152q2.943 0 2.944 2.944v57.344h11.776q2.943 0 2.944 2.816v.896q0 1.408-.768 2.048-.64.512-2.176.512h-11.776v17.536q0 2.944-2.944 2.944zm-2.944-26.752V82.84l-40.833 49.408zM141.309 231.337v-.004c0-11.782-9.224-21.333-20.603-21.333s-20.603 9.551-20.603 21.333c-11.379 0-20.603 9.552-20.603 21.334S88.724 274 100.103 274c10.386 0 18.977-7.957 20.397-18.305C121.92 266.043 130.511 274 140.897 274c11.379 0 20.603-9.551 20.603-21.333 0-11.64-9.002-21.102-20.191-21.33"/><rect width="5" height="33" x="118.5" y="251" rx="2.5"/><path d="M676.102 959q2.944 0 2.944 2.944v17.536h46.976q2.56 0 2.56 2.304v.896q0 1.793-1.152 3.072l-48.64 59.008c-.682.85-1.536 1.28-2.56 1.28h-1.152q-2.943 0-2.944-2.94v-57.348h-11.776q-2.943 0-2.944-2.816v-.896q0-1.408.768-2.048.64-.512 2.176-.512h11.776v-17.536q0-2.944 2.944-2.944zm2.944 26.752v49.408l40.832-49.408zM672.691 886.663v.004c0 11.782 9.224 21.333 20.603 21.333s20.603-9.551 20.603-21.333c11.379 0 20.603-9.552 20.603-21.334S725.276 844 713.897 844c-10.386 0-18.977 7.957-20.397 18.305C692.08 851.957 683.489 844 673.103 844c-11.379 0-20.603 9.551-20.603 21.333 0 11.64 9.002 21.102 20.191 21.33"/><rect width="5" height="33" x="695.5" y="867" rx="2.5" transform="rotate(-180 695.5 867)"/></g><path stroke="#fff066" stroke-width="8" d="M411.779 601.935c13.001 0 23.889 11.163 23.889 25.377v3.923l3.918.081c12.786.265 23.414 11.333 23.414 25.372 0 14.214-10.889 25.377-23.89 25.377-11.873 0-21.966-9.289-23.646-21.741h-7.928c-1.68 12.452-11.773 21.741-23.646 21.741-13.001 0-23.89-11.163-23.89-25.377s10.889-25.376 23.89-25.376h4v-4c0-14.214 10.889-25.377 23.889-25.377Z"/><path fill="#fff066" d="M408.307 664.027a3.04 3.04 0 1 1 6.082 0v30.932a3.04 3.04 0 1 1-6.082 0z"/><path stroke="#fff066" stroke-width="8" d="M579.779 439.935c13.001 0 23.889 11.163 23.889 25.377v3.923l3.918.081c12.786.265 23.414 11.333 23.414 25.372 0 14.214-10.889 25.377-23.89 25.377-11.873 0-21.966-9.289-23.646-21.741h-7.928c-1.68 12.452-11.773 21.741-23.646 21.741-13.001 0-23.89-11.163-23.89-25.377s10.889-25.376 23.89-25.376h4v-4c0-14.214 10.889-25.377 23.889-25.377Z"/><path fill="#fff066" d="M576.307 502.027a3.04 3.04 0 1 1 6.082 0v30.932a3.04 3.04 0 1 1-6.082 0z"/><path stroke="#fff066" stroke-width="8" d="M243.779 439.935c13.001 0 23.889 11.163 23.889 25.377v3.923l3.918.081c12.786.265 23.414 11.333 23.414 25.372 0 14.214-10.889 25.377-23.89 25.377-11.873 0-21.966-9.289-23.646-21.741h-7.928c-1.68 12.452-11.773 21.741-23.646 21.741-13.001 0-23.89-11.163-23.89-25.377s10.889-25.376 23.89-25.376h4v-4c0-14.214 10.889-25.377 23.889-25.377Z"/><path fill="#fff066" d="M240.307 502.027a3.04 3.04 0 1 1 6.082 0v30.932a3.04 3.04 0 1 1-6.082 0z"/><path stroke="#fff066" stroke-width="8" d="M411.779 439.935c13.001 0 23.889 11.163 23.889 25.377v3.923l3.918.081c12.786.265 23.414 11.333 23.414 25.372 0 14.214-10.889 25.377-23.89 25.377-11.873 0-21.966-9.289-23.646-21.741h-7.928c-1.68 12.452-11.773 21.741-23.646 21.741-13.001 0-23.89-11.163-23.89-25.377s10.889-25.376 23.89-25.376h4v-4c0-14.214 10.889-25.377 23.889-25.377Z"/><path fill="#fff066" d="M408.307 502.027a3.04 3.04 0 1 1 6.082 0v30.932a3.04 3.04 0 1 1-6.082 0z"/><defs><clipPath id="a"><path fill="#fff" d="M46 48h722v1022H46z"/></clipPath></defs></svg>