<svg xmlns="http://www.w3.org/2000/svg" width="822" height="1122" fill="none" viewBox="0 0 822 1122"><rect width="822" height="1122" fill="#1a0033" rx="20"/><g clip-path="url(#a)"><path fill="#fff066" d="M83.77 159q-1.025 0-1.536-.64-.384-.768 0-1.664l35.072-82.56q.512-1.28.896-1.664.512-.512 1.664-.512h2.304q1.152 0 1.536.512.511.384 1.024 1.664l35.072 82.56q.128.256.128.768 0 .64-.512 1.152-.384.384-1.152.384h-2.432q-1.409 0-2.048-.512-.64-.512-1.152-1.664l-9.728-23.04H99.129l-9.728 23.04q-.511 1.152-1.151 1.664T86.2 159zm56.448-31.488-19.2-45.44-19.328 45.44zM121.202 281.503c10.18 10.18 26.685 10.18 36.865 0s10.18-26.685 0-36.865l-33.179-33.179a5.213 5.213 0 0 0-7.373 0l-33.179 33.179.004.003c-9.814 10.207-9.692 26.437.365 36.494s26.287 10.178 36.493.365z"/><rect width="5" height="33" x="118.5" y="266" fill="#fff066" rx="2.5"/><path fill="#fff066" d="M730.23 959q1.024 0 1.536.64.384.768 0 1.664l-35.072 82.556c-.341.86-.64 1.41-.896 1.67q-.512.51-1.664.51h-2.304q-1.152 0-1.536-.51c-.341-.26-.682-.81-1.024-1.67l-35.072-82.556q-.128-.257-.128-.768 0-.64.512-1.152.384-.384 1.152-.384h2.432q1.409 0 2.048.512.64.512 1.152 1.664l9.728 23.04h43.776l9.728-23.04q.513-1.152 1.152-1.664.64-.512 2.048-.512zm-56.448 31.488 19.2 45.442 19.328-45.442zM692.798 836.497c-10.18-10.18-26.685-10.18-36.865 0s-10.18 26.685 0 36.865l33.179 33.179a5.213 5.213 0 0 0 7.373 0l33.179-33.179-.004-.003c9.814-10.207 9.692-26.437-.365-36.494s-26.287-10.178-36.493-.365z"/><rect width="5" height="33" x="695.5" y="852" fill="#fff066" rx="2.5" transform="rotate(-180 695.5 852)"/><path fill="#fff" d="M271.404 493.971q-.577.577-1.222.611-.627.017-1.12-.475-.508-.51-.831-1.307-.322-.798-.645-1.561-.323-.798-.764-1.239-.543-.543-1.12-.475a9 9 0 0 0-1.12.136q.61 1.39 1.086 2.715.476 1.323.662 2.053l-.441-.136a27 27 0 0 0-.679-1.9 30 30 0 0 0-1.171-2.699.79.79 0 0 1-.577-.237q-.509-.51-.543-1.12t.102-.747q.187-.187.373-.034.187.118.272.204.084.084.237.441.153.322.204.373.237.238.696.187.458-.084 1.052-.17.577-.1 1.188 0 .61.068 1.154.611.509.51.814 1.256.323.73.577 1.426.272.678.628 1.035.306.306.56.254a.9.9 0 0 0 .459-.254q.406-.408.577-1.086.186-.696.203-1.494a10 10 0 0 0-.085-1.544 5.6 5.6 0 0 0-.339-1.29l.39-.051q.39 1.035.526 2.291a7.6 7.6 0 0 1-.135 2.376q-.238 1.12-.968 1.85m5.934-5.73q-.73.73-1.493.577-.747-.136-1.392-.781a5.3 5.3 0 0 1-.916-1.256 7.6 7.6 0 0 1-.611-1.493 4.7 4.7 0 0 1-.17-1.426q.051-.661.407-1.018.153-.153.442-.271-.018.288.135.882.153.56.442 1.222.272.645.594 1.239.339.577.661.899.51.51.917.577a.75.75 0 0 0 .662-.22q.356-.357.475-1.222a8.7 8.7 0 0 0-.017-1.952q-.865.085-1.765-.271a5 5 0 0 1-1.561-1.053 4.2 4.2 0 0 1-.866-1.238 2.64 2.64 0 0 1-.204-1.358q.069-.679.594-1.205.696-.695 1.307-.56.611.136 1.171.696.662.662 1.154 1.799.475 1.12.73 2.359.475-.136.814-.476.392-.39.696-1.204.29-.832-.102-1.833l.374-.034q.458 1.137.169 2.104-.288.933-.848 1.494-.459.458-.984.644a8.8 8.8 0 0 1 0 2.546q-.17 1.188-.815 1.833m0-4.99a9.8 9.8 0 0 0-.611-2.002q-.407-.984-1.018-1.595-.492-.492-.866-.56-.372-.102-.594.118-.34.34-.203 1.188.135.849.882 1.596a5.5 5.5 0 0 0 1.137.865q.645.34 1.273.39m7.624-2.43q-.323.322-1.052-.034a5.3 5.3 0 0 1-1.409-1.035q-.814-.815-1.663-2.207a33 33 0 0 1-1.646-3.071 43 43 0 0 1-1.443-3.411 36 36 0 0 1-1.018-3.293q-.39-1.544-.458-2.63t.305-1.46q.306-.305.798-.05.492.22.832.56.474.475.933 1.374.475.882.882 2.037.392 1.137.645 2.376.255 1.238.306 2.443.034 1.188-.204 2.139.288.695.747 1.459.475.746 1.001 1.409.509.644.967 1.103l.323.322.288.221a25 25 0 0 1-1.255-3.089q-.493-1.51-.476-2.749.034-1.256.781-2.003.696-.696 1.476-.492.781.17 1.341.73.526.526.832 1.205.322.662.594 1.307t.695 1.069q.34.34.628.356a.71.71 0 0 0 .526-.221q.391-.39.493-1.238.118-.866-.017-1.952a10.6 10.6 0 0 0-.543-2.172l.424-.017q.476 1.188.645 2.376.153 1.17-.068 2.172-.22 1.001-.883 1.663-.576.577-1.188.577-.593-.017-1.052-.475a4 4 0 0 1-.662-.934 29 29 0 0 0-.645-1.154 4.3 4.3 0 0 0-.729-1.001q-.441-.441-.815-.441a.88.88 0 0 0-.645.272q-.424.423-.424 1.103t.255 1.51q.254.797.594 1.646.356.832.678 1.595a8 8 0 0 1 .425 1.307q.118.56-.119.798m-4.633-7.145a7.5 7.5 0 0 0-.034-1.867q-.119-1.035-.373-2.07a26 26 0 0 0-.594-1.986 14 14 0 0 0-.662-1.612q-.34-.678-.594-.933-.136-.136-.204-.068-.119.119-.017.967.102.814.407 2.071.306 1.255.832 2.698t1.239 2.8m8.885-13.06q-.272.272-.627.356-.34.068-.628-.22-.357-.356-.204-1.019.153-.695.56-1.103.255-.254.526-.288.272-.034.56.254.323.322.272.985a1.6 1.6 0 0 1-.459 1.035m5.736 9.809q-.661.662-1.408.56-.73-.085-1.324-.679-.39-.39-.848-1.12a18 18 0 0 1-.849-1.629q-.425-.9-.696-1.782-.254-.9-.254-1.612-.017-.73.322-1.069a.5.5 0 0 1 .357-.153q.202-.035.39.153.204.202.39.933.204.712.442 1.663.237.95.627 1.884.391.899.985 1.493.61.61 1.018.611.407 0 .832-.424.576-.577.644-1.799.086-1.239-.628-3.411l.323.017q.967 1.952.815 3.665-.136 1.697-1.138 2.699m6.351-5.672q-1.51 1.51-3.19-.17-.747-.746-1.562-2.104a35 35 0 0 1-1.544-2.97 5 5 0 0 0-.373.272 3 3 0 0 1-.374.203l-.305-.305q.153-.119.356-.289.204-.17.458-.39a36 36 0 0 1-1.001-2.529 27 27 0 0 1-.73-2.325q-.271-1.086-.305-1.832-.034-.781.221-1.036a.46.46 0 0 1 .339-.135q.204-.034.39.152.29.289.594 1.307.289 1.002.662 2.427t.933 2.97l.628-.628q.56-.56 1.154-1.188.612-.645 1.171-1.341l.306.306q-1.646 2.053-2.783 3.19l-.255.255q.509 1.29 1.188 2.511a9.5 9.5 0 0 0 1.578 2.122q.73.729 1.273.831.527.085 1.035-.424.883-.882.951-2.512t-.628-3.614l.39-.051a10 10 0 0 1 .679 2.749q.153 1.375-.153 2.562-.306 1.188-1.103 1.986m13.185-12.845q-.815.814-1.901.814t-2.172-1.086a6.2 6.2 0 0 1-1.324-1.968 7.9 7.9 0 0 1-.577-2.342 6.3 6.3 0 0 1 .187-2.224q.271-1.052.916-1.697.696-.695 1.358-.543.662.153 1.103.594.492.492.628 1.103.153.594-.238.985-.288.288-.746.237.119-.39-.102-.984-.238-.61-.611-.984-.204-.204-.39-.221-.187-.05-.408.17-.457.458-.543 1.357-.068.883.153 1.952.238 1.052.679 2.037.457.966 1.086 1.595.526.525 1.222.713.696.186 1.425-.544.68-.678.985-1.731.322-1.069.22-2.358a7.8 7.8 0 0 0-.679-2.58l.391-.051a9.1 9.1 0 0 1 .763 2.902q.12 1.476-.237 2.749t-1.188 2.105m5.859-6.47q-.323.322-1.052-.034a5.3 5.3 0 0 1-1.409-1.035q-.814-.815-1.663-2.207a33 33 0 0 1-1.646-3.071 43 43 0 0 1-1.443-3.411 36 36 0 0 1-1.018-3.293q-.39-1.544-.458-2.63t.305-1.46q.306-.305.798-.05.492.22.832.56.474.475.933 1.374.476.883.882 2.037.392 1.137.645 2.376.255 1.238.306 2.443.033 1.188-.204 2.139.288.695.747 1.459.475.746 1.001 1.409.509.645.967 1.103l.323.322.288.221a25 25 0 0 1-1.256-3.089q-.492-1.51-.475-2.749.034-1.256.781-2.003.696-.695 1.476-.492.782.17 1.341.73.526.526.832 1.205.322.662.594 1.307t.695 1.069q.34.34.628.356a.72.72 0 0 0 .526-.22q.391-.392.493-1.239.118-.866-.017-1.952a10.6 10.6 0 0 0-.543-2.172l.424-.017q.475 1.188.645 2.376.152 1.17-.068 2.172-.22 1.001-.883 1.663-.576.577-1.188.577-.594-.017-1.052-.475a4 4 0 0 1-.662-.933q-.304-.578-.645-1.154a4.3 4.3 0 0 0-.729-1.002q-.441-.441-.815-.441a.88.88 0 0 0-.645.272q-.424.423-.424 1.103 0 .678.255 1.51.253.797.594 1.646.356.832.678 1.595a8 8 0 0 1 .425 1.307q.118.56-.119.798m-4.633-7.145a7.5 7.5 0 0 0-.034-1.867q-.119-1.035-.373-2.07a26 26 0 0 0-.594-1.986 14 14 0 0 0-.662-1.612q-.34-.678-.594-.933-.137-.136-.204-.068-.119.119-.017.967.102.814.407 2.071.306 1.255.832 2.698t1.239 2.8m14.672-3.098q-.73.729-1.493.577-.747-.136-1.392-.781a5.3 5.3 0 0 1-.916-1.256 7.7 7.7 0 0 1-.611-1.493 4.7 4.7 0 0 1-.17-1.426q.051-.661.408-1.018.151-.152.441-.272-.017.29.136.883.151.56.441 1.222.272.645.594 1.239.34.576.662.899.509.509.916.577.39.05.662-.221.356-.356.475-1.221a8.7 8.7 0 0 0-.017-1.952 3.75 3.75 0 0 1-1.765-.272 5 5 0 0 1-1.561-1.052 4.2 4.2 0 0 1-.866-1.239 2.6 2.6 0 0 1-.203-1.357q.067-.679.594-1.205.696-.696 1.306-.56.612.135 1.171.696.663.661 1.154 1.798.475 1.12.73 2.359.475-.135.815-.475.39-.39.696-1.205.288-.831-.102-1.833l.373-.033q.459 1.137.17 2.104-.289.933-.849 1.493a2.6 2.6 0 0 1-.984.645 8.8 8.8 0 0 1 0 2.546q-.17 1.188-.815 1.833m0-4.99a9.7 9.7 0 0 0-.611-2.002q-.407-.984-1.018-1.596-.492-.491-.865-.56-.374-.101-.594.119-.34.34-.204 1.188.136.85.883 1.595a5.5 5.5 0 0 0 1.137.866q.644.339 1.272.39m7.964-3.041q-.577.577-1.443.424-.866-.187-1.544-.866-.492-.492-.985-1.289a18 18 0 0 1-.865-1.681q-.39-.865-.543-1.527t.034-.848q.084-.085.39-.187.288-.118.577-.102.102.476.424 1.341t.798 1.748q.475.882 1.052 1.459.136.137.458.39.306.238.662.323a.63.63 0 0 0 .628-.187q.322-.323.34-.984a7.4 7.4 0 0 0-.187-1.544 17 17 0 0 0-.458-1.816 57 57 0 0 0-.577-1.765q-.272-.849-.459-1.409.12-.084.357-.22.255-.153.492-.221.255-.085.407.068.069.068.289.628.204.543.526 1.341.322.763.713 1.493t.814 1.154q.306.306.611.373.322.05.628-.254.357-.357.543-1.188.188-.832.102-1.969a9.7 9.7 0 0 0-.56-2.427l.373-.067q.561 1.272.696 2.562.119 1.273-.136 2.308-.254 1.035-.865 1.646-.679.679-1.307.56-.61-.102-1.137-.628a3.4 3.4 0 0 1-.373-.441 8 8 0 0 1-.357-.526q.357 1.306.442 2.512.084 1.17-.56 1.816m8.798-8.528q-.322.323-1.052-.034a5.3 5.3 0 0 1-1.408-1.035q-.815-.814-1.663-2.206a34 34 0 0 1-1.647-3.072 43 43 0 0 1-1.442-3.411 35 35 0 0 1-1.018-3.292q-.39-1.545-.459-2.631-.067-1.086.306-1.459.305-.306.798-.051.492.22.831.56.475.475.933 1.375.475.882.883 2.036.39 1.137.645 2.376.254 1.24.305 2.444.034 1.188-.203 2.138.288.695.746 1.46.476.746 1.002 1.408.508.645.967 1.103l.322.323q.153.118.289.22a25 25 0 0 1-1.256-3.088q-.492-1.51-.475-2.75.033-1.255.781-2.002.695-.696 1.476-.492.78.17 1.341.729.526.527.831 1.205.322.663.594 1.307a3.3 3.3 0 0 0 .696 1.069q.34.339.628.357a.72.72 0 0 0 .526-.221q.39-.39.492-1.239.119-.865-.017-1.951a10.6 10.6 0 0 0-.543-2.173l.424-.017q.476 1.188.645 2.376.153 1.171-.068 2.172-.22 1.001-.882 1.664-.577.576-1.188.577-.594-.017-1.052-.476a3.9 3.9 0 0 1-.662-.933 30 30 0 0 0-.645-1.154 4.3 4.3 0 0 0-.73-1.001q-.44-.441-.814-.442a.88.88 0 0 0-.645.272q-.424.425-.424 1.103 0 .68.254 1.51.255.798.594 1.647.357.831.679 1.595.306.747.424 1.307.119.56-.119.797m-4.633-7.144a7.4 7.4 0 0 0-.034-1.867 17 17 0 0 0-.373-2.071 26 26 0 0 0-.594-1.985 13 13 0 0 0-.662-1.612q-.339-.68-.594-.934-.135-.135-.203-.068-.12.12-.017.968.101.815.407 2.07.306 1.256.832 2.698.525 1.443 1.238 2.801m14.571-2.488a1.7 1.7 0 0 1-1.239.526q-.712.034-1.425-.679-.612-.61-1.036-1.578a9 9 0 0 1-.644-2.138 10.8 10.8 0 0 1-.187-2.325 7.9 7.9 0 0 1 .356-2.19q.34-1.017 1.002-1.68.661-.662 1.459-.746.78-.102 1.358.475.425.424.339.814-.067.374-.441.747a3.2 3.2 0 0 0-.509-.679q-.39-.39-.849-.475-.476-.102-.933.357-.475.474-.628 1.306-.17.815-.068 1.833.085 1.001.373 2.003.289 1 .713 1.832t.917 1.324q.661.661 1.12.204.39-.39.492-1.205.084-.831 0-1.867a27 27 0 0 0-.255-2.121 52 52 0 0 0-.339-1.901q-.034-.17-.017-.187.17-.135.543-.271.356-.153.543.034.153.153.271.577.102.407.255.933.153.527.356 1.035.187.493.493.798.254.255.644.373.374.102.679-.203.459-.459.543-1.867.069-1.425-.509-3.53h.34q.56 1.274.695 2.529.136 1.256-.118 2.291-.238 1.018-.849 1.629-.628.628-1.307.56a1.85 1.85 0 0 1-1.103-.526 4 4 0 0 1-.441-.543q.255 1.714.136 2.817-.102 1.086-.73 1.714m13.297-14.214q-.593.594-1.205.594-.594-.017-1.069-.492a3.6 3.6 0 0 1-.628-.865q-.253-.526-.543-1.053a4.2 4.2 0 0 0-.696-.933q-.474-.475-.848-.441a.9.9 0 0 0-.662.288q-.526.527-.628 1.511-.119.967.051 2.155.153 1.172.424 2.325t.493 2.053a1.8 1.8 0 0 1-.611.408 1.1 1.1 0 0 1-.662.118q-.085-.084-.34-.712-.271-.611-.679-1.494a23 23 0 0 0-.899-1.748q-.492-.865-1.052-1.425a1.6 1.6 0 0 1 .085-.56q.102-.34.339-.577.458-.458.9-.017.271.271.763 1.069.475.78.934 1.714a22 22 0 0 1-.357-2.393 9.2 9.2 0 0 1 .068-2.376q.187-1.103.832-1.748.661-.661 1.425-.475.781.17 1.358.747.526.526.814 1.154.272.61.51 1.222.238.576.661 1.001.357.357.645.373a.76.76 0 0 0 .509-.237q.424-.425.459-1.239a8 8 0 0 0-.204-1.833 15 15 0 0 0-.526-1.952l.407.034q.712 1.765.798 3.31.084 1.544-.866 2.494"/></g><mask id="c" width="323" height="323" x="251" y="370" maskUnits="userSpaceOnUse" style="mask-type:alpha"><mask id="b" fill="#fff"><path fill-rule="evenodd" d="M402 638.057c-37.03 27.095-89.322 23.933-122.789-9.488-36.518-36.466-36.96-95.316-1.326-132.325l-.013-.013 120.475-120.307c7.393-7.382 19.379-7.382 26.772 0l120.475 120.307c36.965 36.914 36.965 96.762 0 133.675-34.321 34.273-88.441 36.724-125.594 7.354V684a9 9 0 0 1-9 9 9 9 0 0 1-9-9z" clip-rule="evenodd"/></mask><path fill="#fff066" fill-rule="evenodd" d="M402 638.057c-37.03 27.095-89.322 23.933-122.789-9.488-36.518-36.466-36.96-95.316-1.326-132.325l-.013-.013 120.475-120.307c7.393-7.382 19.379-7.382 26.772 0l120.475 120.307c36.965 36.914 36.965 96.762 0 133.675-34.321 34.273-88.441 36.724-125.594 7.354V684a9 9 0 0 1-9 9 9 9 0 0 1-9-9z" clip-rule="evenodd"/><path fill="#000" d="m279.211 628.569.706-.707zM402 638.057h1v-1.971l-1.59 1.164zM277.885 496.244l.721.694.681-.707-.695-.694zm-.013-.013-.706-.707-.709.707.708.708zm120.475-120.307.707.708zm26.772 0-.707.708zm120.475 120.307-.707.708zm0 133.675.706.708zM420 637.26l.62-.785-1.62-1.28v2.065zm-141.496-7.983c33.821 33.774 86.665 36.969 124.087 9.587l-1.181-1.614c-36.639 26.808-88.38 23.678-121.493-9.388zm-1.339-133.726c-36.011 37.4-35.565 96.873 1.339 133.726l1.413-1.415c-36.131-36.081-36.568-94.308-1.311-130.924zm0 1.388.014.013 1.413-1.415-.013-.013zM397.64 375.217 277.166 495.524l1.413 1.415 120.475-120.307zm28.186 0c-7.784-7.773-20.402-7.773-28.186 0l1.414 1.415c7.002-6.993 18.356-6.993 25.358 0zM546.3 495.524 425.826 375.217l-1.414 1.415 120.475 120.307zm0 135.09c37.356-37.304 37.356-97.786 0-135.09l-1.413 1.415c36.574 36.523 36.574 95.737 0 132.259zm-126.92 7.43c37.546 29.682 92.237 27.205 126.92-7.43l-1.413-1.416c-33.958 33.911-87.507 36.337-124.267 7.277zm-.38-.784V684h2v-46.74zm0 46.74a8 8 0 0 1-8 8v2c5.523 0 10-4.477 10-10zm-8 8a8 8 0 0 1-8-8h-2c0 5.523 4.477 10 10 10zm-8-8v-45.943h-2V684z" mask="url(#b)"/></mask><g fill-rule="evenodd" clip-rule="evenodd" mask="url(#c)"><path fill="#e6cf00" d="m214 337.607 13.04-13.827c14.044-13.827 41.128-41.481 68.212-22.123 26.08 16.592 53.164 80.196 80.248 80.196s54.168-63.604 81.252-66.369c26.08-5.531 53.164 47.012 67.208 74.666L537 417.804V498H214z"/><path fill="#ffe81a" d="m230 556.6 16.714-25.56c18-28.401 52.715-82.361 87.429-102.241 33.428-17.04 68.143 0 102.857 28.4 34.714 25.56 69.429 62.48 104.143 76.681 33.428 14.2 68.143 5.68 86.143 0L644 531.04V585H230z"/><path fill="#fff066" d="m138 587.26 18.571 3.548c20 3.548 58.572 8.87 97.143-3.548 37.143-10.644 75.715-39.028 114.286-65.638 38.571-24.836 77.143-47.898 115.714-56.768 37.143-8.87 75.715-3.548 95.715 0L598 466.628V605H138z"/><path fill="#fff599" d="m207 639 16.553-8.415c17.826-8.415 52.205-23.562 86.584-43.759 33.105-18.513 67.484-40.392 101.863-53.856s68.758-18.513 103.137-5.049c33.105 13.464 67.484 45.441 85.31 62.271L617 607.023V639H207"/><path fill="#fffacc" d="m251 562.5 13.363 18c14.392 18 42.146 54 68.873 58.5 27.755 2.25 55.509-27 83.264-51.75S472.009 540 498.736 540c27.755 0 55.509 22.5 68.873 33.75L582 585v108H251z"/></g><defs><clipPath id="a"><path fill="#fff" d="M46 48h722v1022H46z"/></clipPath></defs></svg>