<svg xmlns="http://www.w3.org/2000/svg" width="722" height="1022" fill="none" viewBox="0 0 722 1022"><g fill-rule="evenodd" clip-path="url(#a)" clip-rule="evenodd"><path fill="#26004d" d="M891.31 162.272h-24.69c-24.69 0-74.07 0-123.451-20.7-49.38-19.319-99.994-59.338-149.374-64.858-49.38-4.14-98.76 26.219-148.14 60.718s-98.76 74.518-148.14 49.679S197.52 72.574 148.14 36.695c-49.38-34.499-98.76-13.8-123.45-4.14L0 42.215v209.754h891.31z"/><path fill="#306" d="m0 189.181 30-12.946c30-14.796 90-40.688 151-33.29 60 5.548 120 46.236 180 79.527 60 33.29 120 61.032 181 20.344 60-40.688 120-147.957 150-201.591l30-53.635v321.806H0z"/><path fill="#4d0099" d="M0 291.995h30c30 0 90 0 151-47.543 60-47.543 117.38-103.122 177.38-95.199 60 10.565 122.62 84.634 183.62 113.688 60 29.054 120-29.054 150-58.108l30-26.413v285.257H0z"/><path fill="#60c" d="m-377 231 30.443 52.922c30.443 51.318 91.33 155.557 152.216 184.424 60.887 28.866 123.295-17.641 184.182-28.867s121.773 11.226 182.659 0 121.773-57.732 182.659-97.825c60.887-41.695 123.295-75.373 184.182-57.732 60.886 16.037 121.773 86.599 152.216 121.88L722 439.479V579H-377z"/><path fill="#93f" d="m-254.168 479.74 56.13 27.263c56.13 27.264 168.391 81.79 282.256 60.942C196.478 547.096 308.739 452.477 421 446.062s224.522 75.375 338.386 73.771c112.261 1.604 224.522-80.186 280.654-120.279l56.13-41.697v365.649H-254.168z"/><path fill="#b366ff" d="m0 649.805 35-4c35-5 105-13 176-26 70-12 140-29 210-8s140 80 211 97c70 17 140-8 175-21l35-13v152H0z"/><path fill="#c9f" d="m0 762.65 35 7.181c35 7.182 105 23.34 176 30.521 70 7.182 140 7.182 210-7.181 70-16.158 140-46.679 211-53.861 70-7.181 140 7.182 175 16.159l35 7.181v181.331H0z"/><path fill="#f2e6ff" d="M-60 899.73h28c28 0 84 0 140-6.445 57-6.445 113-20.947 169-40.282 56-20.946 112-48.338 168-20.946 56 27.391 113 107.954 169 107.954s112-80.563 140-120.844l28-41.893v244.916H-60z"/></g><defs><clipPath id="a"><path fill="#fff" d="M0 0h722v1022H0z"/></clipPath></defs></svg>