<svg xmlns="http://www.w3.org/2000/svg" width="822" height="1122" fill="none" viewBox="0 0 822 1122"><rect width="822" height="1122" fill="#1a0033" rx="20"/><g fill="#b366ff" clip-path="url(#a)"><path d="M120.57 160.92q-14.976 0-24.192-9.216-9.088-9.216-9.088-29.824 0-19.456 5.248-30.976 5.248-11.648 13.312-16.256t17.408-4.608q7.168 0 12.928 1.536 5.888 1.536 9.856 4.224.768.512.896.896t-.256 1.152l-1.664 2.816q-.384.768-.896.768-.256 0-.896-.384-8.064-5.12-20.096-5.12t-19.456 8.96q-7.296 8.832-9.088 25.344 4.352-6.144 11.264-9.088t16.64-2.944q9.344 0 16.64 3.456t11.392 10.24q4.224 6.656 4.224 16 0 16.256-9.088 24.704-8.96 8.32-25.088 8.32m0-5.888q27.52 0 27.52-27.136 0-11.904-7.04-17.792-6.912-5.888-19.712-5.888-6.016 0-12.416 2.688-6.272 2.56-10.496 7.68t-4.224 12.16q0 14.208 7.424 21.248t18.944 7.04M112.679 208.481c3.959-5.938 12.683-5.938 16.642 0l21.981 32.972a10 10 0 0 1 0 11.094l-21.981 32.972c-3.959 5.938-12.683 5.938-16.642 0l-21.981-32.972a10 10 0 0 1 0-11.094zM693.43 957.08q14.976 0 24.192 9.216 9.088 9.216 9.088 29.824c0 12.97-1.749 23.3-5.248 30.98-3.499 7.76-7.936 13.18-13.312 16.25s-11.179 4.61-17.408 4.61c-4.779 0-9.088-.51-12.928-1.54-3.925-1.02-7.211-2.43-9.856-4.22q-.768-.51-.896-.9c-.085-.25 0-.64.256-1.15l1.664-2.81c.256-.52.555-.77.896-.77.171 0 .469.13.896.38 5.376 3.42 12.075 5.12 20.096 5.12s14.507-2.98 19.456-8.96c4.864-5.89 7.893-14.33 9.088-25.34q-4.352 6.135-11.264 9.09-6.912 2.94-16.64 2.94c-6.229 0-11.776-1.15-16.64-3.46-4.864-2.3-8.661-5.71-11.392-10.24-2.816-4.43-4.224-9.767-4.224-15.996q0-16.256 9.088-24.704 8.96-8.32 25.088-8.32m0 5.888q-27.52 0-27.52 27.136 0 11.902 7.04 17.796 6.912 5.88 19.712 5.88c4.011 0 8.149-.89 12.416-2.68q6.272-2.565 10.496-7.68c2.816-3.42 4.224-7.471 4.224-12.164q0-14.208-7.424-21.248t-18.944-7.04M701.321 909.519c-3.959 5.938-12.683 5.938-16.642 0l-21.981-32.972a10 10 0 0 1 0-11.094l21.981-32.972c3.959-5.938 12.683-5.938 16.642 0l21.981 32.972a10 10 0 0 1 0 11.094z"/></g><path stroke="#b366ff" stroke-width="8" d="M406.008 605.699c2.375-3.562 7.609-3.562 9.984 0l21.982 32.973a6 6 0 0 1 0 6.656l-21.982 32.973c-2.375 3.562-7.609 3.562-9.984 0l-21.982-32.973a6 6 0 0 1 0-6.656zM574.008 605.699c2.375-3.562 7.609-3.562 9.984 0l21.982 32.973a6 6 0 0 1 0 6.656l-21.982 32.973c-2.375 3.562-7.609 3.562-9.984 0l-21.982-32.973a6 6 0 0 1 0-6.656zM238.008 605.699c2.375-3.562 7.609-3.562 9.984 0l21.982 32.973a6 6 0 0 1 0 6.656l-21.982 32.973c-2.375 3.562-7.609 3.562-9.984 0l-21.982-32.973a6 6 0 0 1 0-6.656zM574.008 443.699c2.375-3.562 7.609-3.562 9.984 0l21.982 32.973a6 6 0 0 1 0 6.656l-21.982 32.973c-2.375 3.562-7.609 3.562-9.984 0l-21.982-32.973a6 6 0 0 1 0-6.656zM238.008 443.699c2.375-3.562 7.609-3.562 9.984 0l21.982 32.973a6 6 0 0 1 0 6.656l-21.982 32.973c-2.375 3.562-7.609 3.562-9.984 0l-21.982-32.973a6 6 0 0 1 0-6.656zM406.008 443.699c2.375-3.562 7.609-3.562 9.984 0l21.982 32.973a6 6 0 0 1 0 6.656l-21.982 32.973c-2.375 3.562-7.609 3.562-9.984 0l-21.982-32.973a6 6 0 0 1 0-6.656z"/><defs><clipPath id="a"><path fill="#fff" d="M46 48h722v1022H46z"/></clipPath></defs></svg>