<svg xmlns="http://www.w3.org/2000/svg" width="822" height="1122" fill="none" viewBox="0 0 822 1122"><rect width="822" height="1122" fill="#1a0033" rx="20"/><g fill="#b366ff" clip-path="url(#a)"><path d="M121.008 160.92q-15.616 0-24.448-6.528t-8.832-18.304q0-8.448 4.608-14.336 4.735-6.016 12.544-8.064-14.465-5.248-14.465-19.712 0-11.52 7.808-17.664 7.936-6.272 22.785-6.272 14.847 0 22.656 6.272 7.935 6.144 7.936 17.664 0 14.464-14.464 19.712 7.808 2.047 12.416 8.064 4.736 5.888 4.736 14.336 0 11.776-8.832 18.304t-24.448 6.528m0-50.176q11.775 0 17.792-3.84 6.144-3.84 6.144-12.928 0-9.6-5.888-13.824-5.889-4.224-18.048-4.224-12.16 0-18.048 4.224-5.889 4.224-5.888 13.824 0 9.088 6.016 12.928 6.144 3.84 17.92 3.84m0 44.288q13.44 0 19.968-4.608 6.656-4.736 6.656-14.336 0-19.328-26.624-19.328t-26.624 19.328q0 9.6 6.528 14.336 6.656 4.608 20.096 4.608M120.798 218.497c-10.18-10.18-26.685-10.18-36.865 0s-10.18 26.685 0 36.865l33.179 33.179a5.213 5.213 0 0 0 7.373 0l33.179-33.179-.004-.003c9.814-10.207 9.692-26.436-.365-36.493s-26.287-10.179-36.493-.365zM692.992 957.08q15.616 0 24.448 6.528t8.832 18.304q0 8.448-4.608 14.336c-3.157 4.012-7.338 6.702-12.544 8.062q14.464 5.25 14.464 19.71 0 11.52-7.808 17.67-7.935 6.27-22.784 6.27-14.847 0-22.656-6.27-7.936-6.15-7.936-17.67 0-14.46 14.464-19.71c-5.205-1.36-9.344-4.05-12.416-8.062q-4.736-5.888-4.736-14.336 0-11.776 8.832-18.304t24.448-6.528m0 50.18q-11.775 0-17.792 3.84c-4.096 2.56-6.144 6.87-6.144 12.92q0 9.6 5.888 13.83c3.926 2.81 9.942 4.22 18.048 4.22 8.107 0 14.123-1.41 18.048-4.22q5.889-4.23 5.888-13.83c0-6.05-2.005-10.36-6.016-12.92q-6.144-3.84-17.92-3.84m0-44.292q-13.44 0-19.968 4.608-6.656 4.736-6.656 14.336 0 19.328 26.624 19.328t26.624-19.328q0-9.6-6.528-14.336-6.656-4.608-20.096-4.608M693.202 899.503c10.18 10.18 26.685 10.18 36.865 0s10.18-26.685 0-36.865l-33.179-33.179a5.213 5.213 0 0 0-7.373 0l-33.179 33.179.004.003c-9.814 10.207-9.692 26.436.365 36.493s26.287 10.179 36.493.365z"/></g><path stroke="#b366ff" stroke-width="8" d="M377.261 545.326c8.618-8.618 22.59-8.619 31.209-.001l2.777 2.777 2.827-2.718c8.639-8.306 22.379-8.203 30.892.31 8.514 8.514 8.617 22.254.31 30.893l-.137.143-32.983 32.982a1.213 1.213 0 0 1-1.716.001l-33.179-33.179c-8.618-8.618-8.618-22.59 0-31.208ZM293.261 707.326c8.618-8.618 22.59-8.619 31.209-.001l2.777 2.777 2.827-2.718c8.639-8.306 22.379-8.203 30.892.31 8.514 8.514 8.617 22.254.31 30.893l-.137.143-32.983 32.982a1.213 1.213 0 0 1-1.716.001l-33.179-33.179c-8.618-8.618-8.618-22.59 0-31.208ZM460.261 707.326c8.618-8.618 22.59-8.619 31.209-.001l2.777 2.777 2.827-2.718c8.639-8.306 22.379-8.203 30.892.31 8.514 8.514 8.617 22.254.31 30.893l-.137.143-32.983 32.982a1.213 1.213 0 0 1-1.716.001l-33.179-33.179c-8.618-8.618-8.618-22.59 0-31.208ZM545.261 545.326c8.618-8.618 22.59-8.619 31.209-.001l2.777 2.777 2.827-2.718c8.639-8.306 22.379-8.203 30.892.31 8.514 8.514 8.617 22.254.31 30.893l-.137.143-32.983 32.982a1.213 1.213 0 0 1-1.716.001l-33.179-33.179c-8.618-8.618-8.618-22.59 0-31.208ZM209.261 545.326c8.618-8.618 22.59-8.619 31.209-.001l2.777 2.777 2.827-2.718c8.639-8.306 22.379-8.203 30.892.31 8.514 8.514 8.617 22.254.31 30.893l-.137.143-32.983 32.982a1.213 1.213 0 0 1-1.716.001l-33.179-33.179c-8.618-8.618-8.618-22.59 0-31.208ZM545.261 383.326c8.618-8.618 22.59-8.619 31.209-.001l2.777 2.777 2.827-2.718c8.639-8.306 22.379-8.203 30.892.31 8.514 8.514 8.617 22.254.31 30.893l-.137.143-32.983 32.982a1.213 1.213 0 0 1-1.716.001l-33.179-33.179c-8.618-8.618-8.618-22.59 0-31.208ZM209.261 383.326c8.618-8.618 22.59-8.619 31.209-.001l2.777 2.777 2.827-2.718c8.639-8.306 22.379-8.203 30.892.31 8.514 8.514 8.617 22.254.31 30.893l-.137.143-32.983 32.982a1.213 1.213 0 0 1-1.716.001l-33.179-33.179c-8.618-8.618-8.618-22.59 0-31.208ZM377.261 383.326c8.618-8.618 22.59-8.619 31.209-.001l2.777 2.777 2.827-2.718c8.639-8.306 22.379-8.203 30.892.31 8.514 8.514 8.617 22.254.31 30.893l-.137.143-32.983 32.982a1.213 1.213 0 0 1-1.716.001l-33.179-33.179c-8.618-8.618-8.618-22.59 0-31.208Z"/><defs><clipPath id="a"><path fill="#fff" d="M46 48h722v1022H46z"/></clipPath></defs></svg>