<svg xmlns="http://www.w3.org/2000/svg" width="822" height="1122" fill="none" viewBox="0 0 822 1122"><rect width="822" height="1122" fill="#1a0033" rx="20"/><g fill="#b366ff" clip-path="url(#a)"><path d="M139.971 182.168q-10.88 0-17.28-5.888-6.272-5.888-6.272-15.616-17.791-1.408-27.648-13.184t-9.856-32q0-14.208 4.992-24.448 4.993-10.24 14.464-15.616 9.473-5.376 22.656-5.376t22.656 5.376 14.464 15.616 4.992 24.448q0 20.864-10.496 32.768t-29.312 12.672q0 7.68 4.736 11.52 4.864 3.84 12.928 3.84 8.32 0 14.464-4.096.512-.384.896-.384.512 0 .896.768l1.792 2.816q.256.384.256.896 0 .768-.896 1.152-4.48 2.56-8.832 3.584-4.224 1.152-9.6 1.152m-18.944-27.136q16.769 0 26.112-10.112 9.344-10.24 9.344-29.44t-9.344-29.312q-9.344-10.24-26.112-10.24t-26.112 10.24Q85.57 96.28 85.571 115.48q0 19.2 9.344 29.44 9.344 10.112 26.112 10.112M112.679 208.481c3.959-5.938 12.683-5.938 16.642 0l21.981 32.972a10 10 0 0 1 0 11.094l-21.981 32.972c-3.959 5.938-12.683 5.938-16.642 0l-21.981-32.972a10 10 0 0 1 0-11.094zM674.029 935.832q10.88 0 17.28 5.888 6.272 5.888 6.272 15.616 17.791 1.408 27.648 13.184t9.856 32q0 14.205-4.992 24.45c-3.328 6.82-8.149 12.03-14.464 15.61-6.315 3.59-13.867 5.38-22.656 5.38s-16.341-1.79-22.656-5.38c-6.315-3.58-11.136-8.79-14.464-15.61q-4.992-10.245-4.992-24.45 0-20.864 10.496-32.768t29.312-12.672q0-7.68-4.736-11.52-4.864-3.84-12.928-3.84-8.32 0-14.464 4.096-.512.384-.896.384-.512 0-.896-.768l-1.792-2.816a1.58 1.58 0 0 1-.256-.896q0-.768.896-1.152 4.48-2.56 8.832-3.584 4.224-1.152 9.6-1.152m18.944 27.136q-16.769 0-26.112 10.112-9.344 10.24-9.344 29.44t9.344 29.31c6.229 6.83 14.933 10.24 26.112 10.24s19.883-3.41 26.112-10.24q9.344-10.11 9.344-29.31t-9.344-29.44q-9.343-10.112-26.112-10.112M701.321 909.519c-3.959 5.938-12.683 5.938-16.642 0l-21.981-32.972a10 10 0 0 1 0-11.094l21.981-32.972c3.959-5.938 12.683-5.938 16.642 0l21.981 32.972a10 10 0 0 1 0 11.094z"/></g><path fill="#8000ff" d="M517.951 488.236c-9.773-28.064 11.497-40.827 0-43.327s-38.93-24.864-45.462-29.541 6.375 23.682 6.793 34.711-8.361 34.3-12.802 44.558c17.505 25.356 55.861 6.203 51.471-6.401"/><path fill="#c9f" d="M464.909 502.119c34.047 23.003 49.415 2.903 53.977-5.432.894-1.633 3.004-2.357 4.651-1.489 16.075 8.483 27.948 8.341 35.917 5.94 3.135-.945 9.254 3.446 8.284 6.573-11.943 38.475-46.766 140.437-75.338 122.296-25.364-16.104-67.534-105.189-75.421-122.198-.715-1.542.004-3.327 1.605-3.898 8.436-3.012 33.216-10.648 46.325-1.792"/><path fill="#b366ff" d="M515.715 259.763c-28.053-13.755-59.051-5.402-73.755 2.391-1.287.682-2.878.419-3.826-.686l-12.943-15.07c-2.186-2.546.82-6.214 3.745-4.57l5.639 3.167c2.149 1.208 4.757-.549 4.445-2.995l-1.333-10.447c-.355-2.789 2.977-4.491 5.028-2.568l9.956 9.335c1.851 1.735 4.886.532 5.046-2l.684-10.838c.172-2.732 3.612-3.825 5.33-1.694l9.848 12.217c1.575 1.954 4.71 1.226 5.262-1.223l2.114-9.384c.68-3.02 4.932-3.156 5.805-.187l2.908 9.897c.696 2.368 3.793 2.93 5.276.958l7.768-10.326c1.731-2.302 5.397-1.077 5.397 1.804v8.824c0 2.527 2.933 3.922 4.893 2.328l8.758-7.123c2.267-1.844 5.564.313 4.784 3.129l-6.417 23.155c-.52 1.876-2.664 2.763-4.412 1.906M532.953 282.771h-99.988l-7.853 66.402s25.586 42.793 55.491 67.606c17.537 14.55 66.517 43.41 71.719 17.601 2.335-11.581 4.734-55.856 4.734-55.856s15.526-.885 13.628-6.913c-1.899-6.027-7.593-7.862-13.628-36.427s-24.103-52.413-24.103-52.413"/><path fill="#f2e6ff" d="M434.276 270.192c55.163-24.837 83.886-5.103 95.402 7.415 2.839 3.085.058 7.264-4.125 6.998-30.821-1.953-64.164 12.026-70.593 15.986-10.211 6.29 0 71.806 19.636 120.55 12.568 23.324 38.121 94.134 18.851 101.682-18.169 7.116-62.36 12.461-82.712 7.777-2.081-.479-3.426-2.398-3.426-4.534V359.381l-.001-.123c-.061-1.854-2.278-75.898 26.968-89.066M555.236 406.728l-.523 8.386c-7.409 1.172-22.988-2.859-27.843-3.562-4.854-.703-5.621-.234-5.365-.937.255-.704-.256.937 4.854-.938s23.512-4.121 28.877-2.949"/><path fill="#f2e6ff" d="M533.183 322.081c-4.703-.083-10.237 1.525-13.524 2.63-1.179.396-1.648 1.614-.408 1.705 3.218.236 10.691-1.958 14.717-1.024 4.778 1.109 10.1 4.776 13.67 4.439.698-.066 1.165-.679 1.281-1.371.141-.84-.259-1.68-1.019-2.064-3.437-1.734-9.583-4.226-14.717-4.315"/><path fill="#8000ff" d="M349.754 651.012c9.774 28.064-11.496 40.827 0 43.327s38.931 24.864 45.463 29.541c6.532 4.678-6.376-23.682-6.794-34.711s8.361-34.3 12.803-44.558c-17.506-25.356-55.861-6.203-51.472 6.401"/><path fill="#c9f" d="M402.797 637.128c-34.047-23.003-49.415-2.902-53.977 5.433-.894 1.632-3.005 2.357-4.651 1.489-16.075-8.483-27.948-8.341-35.917-5.94-3.135.944-9.255-3.446-8.284-6.573 11.943-38.475 46.766-140.437 75.338-122.296 25.364 16.104 67.534 105.189 75.421 122.198.715 1.542-.004 3.327-1.605 3.898-8.436 3.011-33.217 10.648-46.325 1.791"/><path fill="#b366ff" d="M351.991 879.484c28.052 13.756 59.051 5.403 73.755-2.39 1.286-.682 2.877-.419 3.826.686l12.943 15.07c2.186 2.545-.82 6.213-3.746 4.57l-5.638-3.167c-2.149-1.208-4.757.549-4.445 2.995l1.332 10.447c.356 2.789-2.976 4.491-5.027 2.568l-9.956-9.335c-1.851-1.735-4.887-.533-5.046 2l-.684 10.838c-.173 2.731-3.612 3.825-5.33 1.694l-9.848-12.217c-1.575-1.955-4.711-1.226-5.262 1.223l-2.114 9.384c-.681 3.02-4.933 3.156-5.805.187l-2.909-9.898c-.695-2.367-3.792-2.929-5.275-.957l-7.768 10.326c-1.732 2.302-5.397 1.077-5.397-1.804v-8.825c0-2.526-2.933-3.921-4.893-2.327l-8.758 7.122c-2.267 1.844-5.564-.312-4.784-3.128l6.417-23.155c.519-1.876 2.664-2.764 4.412-1.907M334.753 856.477h99.988l7.852-66.403s-25.585-42.792-55.49-67.605c-17.537-14.55-66.517-43.41-71.719-17.601-2.335 11.581-4.734 55.856-4.734 55.856s-15.527.885-13.628 6.913c1.899 6.027 7.593 7.862 13.628 36.427 6.034 28.565 24.103 52.413 24.103 52.413"/><path fill="#f2e6ff" d="M433.43 869.056c-55.163 24.837-83.887 5.103-95.403-7.415-2.838-3.085-.057-7.264 4.126-6.999 30.821 1.954 64.164-12.026 70.593-15.986 10.211-6.289 0-71.805-19.636-120.549-12.568-23.324-38.121-94.134-18.851-101.682 18.168-7.116 62.359-12.461 82.712-7.777 2.081.479 3.426 2.398 3.426 4.534v166.684c0 .059-.001.065.001.123.06 1.855 2.278 75.899-26.968 89.067M312.469 732.52l.524-8.386c7.409-1.172 22.988 2.858 27.842 3.562 4.855.703 5.621.234 5.366.937s.255-.937-4.855.938c-5.109 1.875-23.512 4.121-28.877 2.949"/><path fill="#f2e6ff" d="M334.523 817.167c4.703.082 10.236-1.525 13.524-2.63 1.178-.396 1.647-1.614.407-1.705-3.218-.236-10.691 1.958-14.716 1.023-4.778-1.108-10.101-4.775-13.67-4.438-.698.065-1.165.679-1.281 1.371-.141.84.259 1.68 1.019 2.064 3.437 1.734 9.583 4.226 14.717 4.315"/><defs><clipPath id="a"><path fill="#fff" d="M46 48h722v1022H46z"/></clipPath></defs></svg>