<svg xmlns="http://www.w3.org/2000/svg" width="822" height="1122" fill="none" viewBox="0 0 822 1122"><rect width="822" height="1122" fill="#1a0033" rx="20"/><g clip-path="url(#a)"><path stroke="#b366ff" stroke-width="20" d="M282.544 451.544c32.725-32.725 85.781-32.725 118.506 0l.013.013 6.934 6.933 7.068-6.797c32.807-31.543 84.979-31.151 117.307 1.177s32.719 84.501 1.176 117.307l-.585.607-118.648 118.65a8.76 8.76 0 0 1-12.388 0L282.544 570.05c-32.725-32.725-32.725-85.781 0-118.506Z"/><path fill="#b366ff" d="M83.77 159q-1.025 0-1.536-.64-.384-.768 0-1.664l35.072-82.56q.512-1.28.896-1.664.512-.512 1.664-.512h2.304q1.152 0 1.536.512.511.384 1.024 1.664l35.072 82.56q.128.256.128.768 0 .64-.512 1.152-.384.384-1.152.384h-2.432q-1.409 0-2.048-.512-.64-.512-1.152-1.664l-9.728-23.04H99.129l-9.728 23.04q-.511 1.152-1.151 1.664T86.2 159zm56.448-31.488-19.2-45.44-19.328 45.44zM120.798 218.497c-10.18-10.18-26.685-10.18-36.865 0s-10.18 26.685 0 36.865l33.179 33.179a5.213 5.213 0 0 0 7.373 0l33.179-33.179-.004-.003c9.814-10.207 9.692-26.437-.365-36.494s-26.287-10.178-36.493-.365zM730.23 959q1.024 0 1.536.64.384.768 0 1.664l-35.072 82.556c-.341.86-.64 1.41-.896 1.67q-.512.51-1.664.51h-2.304q-1.152 0-1.536-.51c-.341-.26-.682-.81-1.024-1.67l-35.072-82.556q-.128-.257-.128-.768 0-.64.512-1.152.384-.384 1.152-.384h2.432q1.409 0 2.048.512.64.512 1.152 1.664l9.728 23.04h43.776l9.728-23.04q.513-1.152 1.152-1.664.64-.512 2.048-.512zm-56.448 31.488 19.2 45.442 19.328-45.442zM693.202 899.503c10.18 10.18 26.685 10.18 36.865 0s10.18-26.685 0-36.865l-33.179-33.179a5.213 5.213 0 0 0-7.373 0l-33.179 33.179.004.003c-9.814 10.207-9.692 26.437.365 36.494s26.287 10.178 36.493.365z"/></g><defs><clipPath id="a"><path fill="#fff" d="M46 48h722v1022H46z"/></clipPath></defs></svg>