<svg xmlns="http://www.w3.org/2000/svg" width="822" height="1122" fill="none" viewBox="0 0 822 1122"><rect width="822" height="1122" fill="#1a0033" rx="20"/><g fill="#b366ff" clip-path="url(#a)"><path d="M94.544 159q-2.944 0-2.944-2.944V74.904q0-2.944 2.944-2.944h1.024q2.944 0 2.944 2.944v81.152q0 2.944-2.944 2.944zm52.224 0q-.896 0-1.28-.128-.257-.128-.768-.64l-37.504-39.04-.896-.896q-.64-.768-.896-1.28-.256-.64-.256-1.536 0-1.024.384-1.664t.896-1.152q.511-.64.768-.896l36.864-39.04q.511-.512.768-.64.384-.128 1.28-.128h4.864q1.28 0 1.28.896 0 .511-.896 1.408l-38.912 41.216 39.552 41.216q.896.896.896 1.408 0 .896-1.28.896zM120.798 218.497c-10.18-10.18-26.685-10.18-36.865 0s-10.18 26.685 0 36.865l33.179 33.179a5.213 5.213 0 0 0 7.373 0l33.179-33.179-.004-.003c9.814-10.207 9.692-26.437-.365-36.494s-26.287-10.178-36.493-.365zM719.456 959q2.944 0 2.944 2.944v81.156q0 2.94-2.944 2.94h-1.024q-2.944 0-2.944-2.94v-81.156q0-2.944 2.944-2.944zm-52.224 0q.896 0 1.28.128.257.128.768.64l37.504 39.04.896.896c.427.516.725.936.896 1.276.171.43.256.94.256 1.54 0 .68-.128 1.24-.384 1.66-.256.43-.555.81-.896 1.16-.341.42-.597.72-.768.89l-36.864 39.04c-.341.34-.597.56-.768.64-.256.09-.683.13-1.28.13h-4.864q-1.28 0-1.28-.9c0-.34.299-.81.896-1.4l38.912-41.22-39.552-41.216q-.896-.896-.896-1.408 0-.896 1.28-.896zM693.202 899.503c10.18 10.18 26.685 10.18 36.865 0s10.18-26.685 0-36.865l-33.179-33.179a5.213 5.213 0 0 0-7.373 0l-33.179 33.179.004.003c-9.814 10.207-9.692 26.437.365 36.494s26.287 10.178 36.493.365z"/></g><path fill="#8000ff" fill-rule="evenodd" d="M413.096 652.136v64.373c0 .87-1.035 1.325-1.676.736l-49.04-45.025a1 1 0 0 0-.436-.234l-48.698-12.034a1 1 0 0 1-.76-.971V647.5l48.593-39.976 6.136 5.065 45.53 38.786a1 1 0 0 1 .351.761" clip-rule="evenodd"/><path fill="#b366ff" d="M304.403 894.647h124.863V795.5l-76.393-112.368h-74.548v67.421s-29.289 7.403-26.079 18.772c3.209 11.369 26.079 48.648 26.079 48.648zM306.925 932.379c-2.549 4.059-8.796 2.552-9.215-2.222l-2.114-24.08a5 5 0 0 1 4.981-5.438h17.237c3.932 0 6.326 4.33 4.234 7.66zM423.448 932.379c2.549 4.059 8.796 2.552 9.215-2.222l2.114-24.08a5 5 0 0 0-4.981-5.438h-17.237c-3.932 0-6.326 4.33-4.235 7.66zM388.767 931.581c-1.567 4.453-7.865 4.453-9.432 0l-8.758-24.881c-1.145-3.252 1.268-6.66 4.716-6.66h17.516c3.448 0 5.861 3.408 4.716 6.66zM351.038 931.581c-1.567 4.453-7.865 4.453-9.432 0l-8.758-24.881c-1.145-3.252 1.268-6.66 4.716-6.66h17.516c3.448 0 5.861 3.408 4.716 6.66z"/><path fill="#f2e6ff" d="M399.202 865.444c-18.589 17.173-70.884 13.568-95.638 10.73-6.394-.733-11.798 5.053-10.41 11.338a9.096 9.096 0 0 0 8.883 7.135h123.217c5.523 0 10-4.477 10-10v-131.01a10 10 0 0 0-3.113-7.251l-70.271-66.745a10 10 0 0 0-4.385-2.431l-41.648-10.76a10 10 0 0 0-5.346.095l-30.974 9.19a10 10 0 0 0-7.155 9.587v6.419c0 6.468 6.046 11.333 12.432 10.306 21.317-3.427 64.43-7.332 83.986 12.543 26.529 26.964 72.001 112.442 30.422 150.854"/><rect width="50.305" height="5.992" x="328.655" y="729.27" fill="#f2e6ff" rx="2.996" transform="rotate(-180 328.655 729.27)"/><path fill="#f2e6ff" d="M278.35 740.655v9.587s52.246 4.248 61.481-4.972c7.432-7.42 6.776-47.757 6.776-47.757h-9.665s4.736 31.952-3.972 39.854c-8.707 7.903-54.62 3.288-54.62 3.288"/><path fill="#c9f" d="m361.294 599.844 51.802 44.341h42.22l-95.519-141.41-81.147 138.114h33.536z"/><path fill="#f2e6ff" d="M314.534 842.123c7.339-1.361 14.783-5.904 18.653-8.78.875-.65 1.401-1.817.848-2.756-1.576-2.676-5.344 2.613-11.967 3.841-5.248.974-21.326.13-28.89-1.195-1.594-.279-3.255.566-3.802 2.089l-.85 2.365c-.627 1.745.46 3.631 2.296 3.892 6.505.923 16.793 1.827 23.712.544"/><path fill="#8000ff" fill-rule="evenodd" d="M405.011 479.843v-64.372c0-.87 1.035-1.325 1.677-.736l49.039 45.025c.124.113.274.194.436.234l48.698 12.034a1 1 0 0 1 .76.971v11.481l-48.593 39.976-6.135-5.065-45.53-38.786a1 1 0 0 1-.352-.762" clip-rule="evenodd"/><path fill="#b366ff" d="M513.704 237.332H388.842v99.148l76.392 112.368h74.549v-67.421s29.288-7.403 26.079-18.772c-3.21-11.369-26.079-48.648-26.079-48.648zM511.182 199.601c2.549-4.059 8.796-2.553 9.215 2.222l2.114 24.08a5 5 0 0 1-4.98 5.437h-17.238c-3.932 0-6.325-4.329-4.234-7.659zM394.659 199.601c-2.549-4.059-8.795-2.553-9.215 2.222l-2.114 24.08a5 5 0 0 0 4.981 5.437h17.238c3.932 0 6.325-4.329 4.234-7.659zM429.34 200.399c1.568-4.453 7.865-4.453 9.433 0l8.758 24.88c1.144 3.253-1.269 6.661-4.717 6.661h-17.515c-3.448 0-5.861-3.408-4.717-6.661zM467.069 200.399c1.567-4.453 7.865-4.453 9.433 0l8.757 24.88c1.145 3.253-1.268 6.661-4.716 6.661h-17.515c-3.448 0-5.862-3.408-4.717-6.661z"/><path fill="#f2e6ff" d="M418.905 266.536c18.589-17.174 70.884-13.568 95.638-10.73 6.395.733 11.798-5.053 10.41-11.338a9.1 9.1 0 0 0-8.883-7.136H392.853c-5.523 0-10 4.477-10 10v131.011c0 2.741 1.126 5.363 3.113 7.251l70.271 66.744a10 10 0 0 0 4.386 2.432l41.648 10.76c1.757.454 3.605.421 5.346-.095l30.973-9.19a10 10 0 0 0 7.156-9.587v-6.419c0-6.469-6.046-11.333-12.433-10.306-21.317 3.427-64.43 7.332-83.985-12.543-26.53-26.964-72.001-112.443-30.423-150.854"/><rect width="50.305" height="5.992" x="489.452" y="402.71" fill="#f2e6ff" rx="2.996"/><path fill="#f2e6ff" d="M539.757 391.325v-9.587s-52.245-4.248-61.481 4.972c-7.432 7.419-6.775 47.757-6.775 47.757h9.664s-4.736-31.952 3.972-39.855 54.62-3.287 54.62-3.287"/><path fill="#c9f" d="m456.814 532.135-51.803-44.34h-42.22l95.52 141.41 81.147-138.114h-33.537z"/><path fill="#f2e6ff" d="M503.573 289.857c-7.339 1.361-14.783 5.904-18.653 8.779-.875.65-1.401 1.818-.848 2.757 1.577 2.676 5.344-2.613 11.968-3.842 5.247-.973 21.325-.129 28.889 1.196 1.594.279 3.256-.566 3.803-2.089l.849-2.365c.627-1.745-.46-3.631-2.296-3.892-6.504-.924-16.793-1.827-23.712-.544"/><defs><clipPath id="a"><path fill="#fff" d="M46 48h722v1022H46z"/></clipPath></defs></svg>