<svg xmlns="http://www.w3.org/2000/svg" width="280" height="395" fill="none" viewBox="0 0 280 395"><g clip-path="url(#a)"><rect width="279" height="394" x=".5" y=".5" fill="url(#b)" rx="19.5"/><rect width="279" height="394" x=".5" y=".5" stroke="#d2d2d2" rx="19.5"/><g clip-path="url(#c)" data-figma-skip-parse="true"><foreignObject width="2075.47" height="2075.47" x="-1037.74" y="-1037.74" transform="matrix(0 .036 -.0265 0 139.5 198)"><div xmlns="http://www.w3.org/1999/xhtml" style="background:conic-gradient(from 90deg,#f5bb6e 0deg,#ec606c 88.125deg,#ec606c 131.25deg,#4364ef 200.625deg,#4364ef 249.375deg,#41d589 300deg,#41d589 339.375deg,#f5bb6e 360deg);height:100%;width:100%;opacity:1"/></foreignObject></g><path d="M152 162h-25c-7.732 0-14 6.268-14 14v44c0 7.732 6.268 14 14 14h25c7.732 0 14-6.268 14-14v-44c0-7.732-6.268-14-14-14m-35 14c0-5.523 4.477-10 10-10h25c5.523 0 10 4.477 10 10v44c0 5.523-4.477 10-10 10h-25c-5.523 0-10-4.477-10-10zm22.523 9.727h3.42V209h-3.523v-19.75h-.136l-5.568 3.636v-3.363z" clip-rule="evenodd" data-figma-gradient-fill="{&quot;type&quot;:&quot;GRADIENT_ANGULAR&quot;,&quot;stops&quot;:[{&quot;color&quot;:{&quot;r&quot;:0.96078431606292725,&quot;g&quot;:0.73333334922790527,&quot;b&quot;:0.43137255311012268,&quot;a&quot;:1.0},&quot;position&quot;:0.0},{&quot;color&quot;:{&quot;r&quot;:0.92549020051956177,&quot;g&quot;:0.37647059559822083,&quot;b&quot;:0.42352941632270813,&quot;a&quot;:1.0},&quot;position&quot;:0.24479167163372040},{&quot;color&quot;:{&quot;r&quot;:0.92549020051956177,&quot;g&quot;:0.37647059559822083,&quot;b&quot;:0.42352941632270813,&quot;a&quot;:1.0},&quot;position&quot;:0.36458334326744080},{&quot;color&quot;:{&quot;r&quot;:0.26274511218070984,&quot;g&quot;:0.39215686917304993,&quot;b&quot;:0.93725490570068359,&quot;a&quot;:1.0},&quot;position&quot;:0.55729168653488159},{&quot;color&quot;:{&quot;r&quot;:0.26274511218070984,&quot;g&quot;:0.39215686917304993,&quot;b&quot;:0.93725490570068359,&quot;a&quot;:1.0},&quot;position&quot;:0.69270831346511841},{&quot;color&quot;:{&quot;r&quot;:0.25490197539329529,&quot;g&quot;:0.83529412746429443,&quot;b&quot;:0.53725492954254150,&quot;a&quot;:1.0},&quot;position&quot;:0.83333331346511841},{&quot;color&quot;:{&quot;r&quot;:0.25490197539329529,&quot;g&quot;:0.83529412746429443,&quot;b&quot;:0.53725492954254150,&quot;a&quot;:1.0},&quot;position&quot;:0.94270831346511841}],&quot;stopsVar&quot;:[],&quot;transform&quot;:{&quot;m00&quot;:3.2453141990553642e-15,&quot;m01&quot;:-53.0,&quot;m02&quot;:166.0,&quot;m10&quot;:72.0,&quot;m11&quot;:4.4087285634274859e-15,&quot;m12&quot;:162.0},&quot;opacity&quot;:1.0,&quot;blendMode&quot;:&quot;NORMAL&quot;,&quot;visible&quot;:true}"/></g><defs><clipPath id="c"><path fill-rule="evenodd" d="M152 162h-25c-7.732 0-14 6.268-14 14v44c0 7.732 6.268 14 14 14h25c7.732 0 14-6.268 14-14v-44c0-7.732-6.268-14-14-14m-35 14c0-5.523 4.477-10 10-10h25c5.523 0 10 4.477 10 10v44c0 5.523-4.477 10-10 10h-25c-5.523 0-10-4.477-10-10zm22.523 9.727h3.42V209h-3.523v-19.75h-.136l-5.568 3.636v-3.363z" clip-rule="evenodd"/></clipPath><clipPath id="a"><rect width="280" height="395" fill="#fff" rx="20"/></clipPath><linearGradient id="b" x1="14" x2="275.921" y1="0" y2="394.389" gradientUnits="userSpaceOnUse"><stop stop-color="#53565b"/><stop offset="1" stop-color="#262d3d"/></linearGradient></defs></svg>