<svg xmlns="http://www.w3.org/2000/svg" width="219" height="304" fill="none" viewBox="0 0 219 304"><g filter="url(#a)"><g clip-path="url(#b)"><rect width="203" height="288" x="8" y="4" fill="#fff" rx="10"/><path fill="#211c1d" d="M19.535 42.759c0-.44.14-.821.36-1.261l10.11-21.561v-.2H17.593c-1.241 0-1.842-.641-1.842-1.522 0-.901.6-1.542 1.842-1.542h14.254c1.04 0 1.901.721 1.901 1.902 0 .56-.28 1.482-.72 2.423l-10.21 22.041c-.38.8-.861 1.281-1.702 1.281-.82 0-1.581-.62-1.581-1.561M24.238 72a.373.373 0 0 1-.38-.365c0-.43 1.076-3.253 1.336-5.152.032-.228-.258-.32-.39-.133-.627.89-1.26 1.842-2.981 1.865-3.208.042-5.056-3.005-4.047-5.778C18.271 61.077 25.076 52 26 52s7.73 9.078 8.224 10.437c1.009 2.773-.839 5.82-4.046 5.778-1.722-.023-2.355-.975-2.983-1.865-.13-.186-.42-.095-.39.133.26 1.9 1.338 4.722 1.338 5.152 0 .201-.17.365-.38.365zM199.465 253.241c0 .441-.14.821-.36 1.261l-10.11 21.561v.201h12.412c1.241 0 1.842.64 1.842 1.521 0 .901-.601 1.542-1.842 1.542h-14.254c-1.041 0-1.902-.721-1.902-1.902 0-.561.281-1.482.721-2.423l10.21-22.041c.381-.801.861-1.281 1.702-1.281.821 0 1.581.62 1.581 1.561M194.762 224c.211 0 .381.164.381.365 0 .43-1.077 3.252-1.337 5.152-.032.228.258.319.389.133.628-.89 1.261-1.842 2.983-1.865 3.207-.042 5.055 3.005 4.046 5.778C200.729 234.922 193.925 244 193 244s-7.729-9.078-8.224-10.437c-1.009-2.773.839-5.82 4.047-5.778 1.721.023 2.354.975 2.982 1.865.131.186.421.095.389-.133-.26-1.9-1.337-4.722-1.337-5.152 0-.201.17-.365.381-.365zM61.353 76a.886.886 0 0 1-.895-.876c0-1.031 2.534-7.806 3.146-12.364.074-.548-.608-.767-.916-.321-1.477 2.137-2.967 4.422-7.017 4.477-7.548.101-11.895-7.212-9.521-13.866C47.314 49.787 63.325 28 65.5 28s18.186 21.787 19.35 25.05c2.374 6.654-1.973 13.967-9.52 13.866-4.052-.055-5.54-2.34-7.018-4.477-.308-.446-.99-.227-.916.32.612 4.559 3.146 11.334 3.146 12.365 0 .484-.4.876-.895.876zM61.353 220a.886.886 0 0 0-.895.877c0 1.03 2.534 7.805 3.146 12.363.074.549-.608.767-.916.321-1.477-2.137-2.967-4.422-7.017-4.477-7.548-.101-11.895 7.212-9.521 13.866C47.314 246.213 63.325 268 65.5 268s18.186-21.787 19.35-25.05c2.374-6.654-1.973-13.967-9.52-13.866-4.052.055-5.54 2.34-7.018 4.477-.308.446-.99.228-.916-.321.612-4.558 3.146-11.333 3.146-12.363 0-.485-.4-.877-.895-.877zM149.353 76a.886.886 0 0 1-.895-.876c0-1.031 2.534-7.806 3.146-12.364.074-.548-.608-.767-.916-.321-1.477 2.137-2.967 4.422-7.017 4.477-7.548.101-11.895-7.212-9.521-13.866C135.314 49.787 151.325 28 153.5 28s18.186 21.787 19.35 25.05c2.374 6.654-1.973 13.967-9.521 13.866-4.05-.055-5.54-2.34-7.017-4.477-.308-.446-.99-.227-.916.32.612 4.559 3.146 11.334 3.146 12.365a.886.886 0 0 1-.895.876zM61.353 172a.886.886 0 0 1-.895-.877c0-1.03 2.534-7.805 3.146-12.363.074-.549-.608-.767-.916-.321-1.477 2.137-2.967 4.422-7.017 4.477-7.548.101-11.895-7.212-9.521-13.866C47.314 145.787 63.325 124 65.5 124s18.186 21.787 19.35 25.05c2.374 6.654-1.973 13.967-9.52 13.866-4.052-.055-5.54-2.34-7.018-4.477-.308-.446-.99-.228-.916.321.612 4.558 3.146 11.333 3.146 12.363 0 .485-.4.877-.895.877zM105.353 124a.886.886 0 0 1-.895-.877c0-1.03 2.534-7.805 3.146-12.363.074-.549-.608-.767-.916-.321-1.477 2.137-2.967 4.422-7.017 4.477-7.548.101-11.895-7.212-9.521-13.866C91.314 97.787 107.325 76 109.5 76s18.186 21.787 19.35 25.05c2.374 6.654-1.973 13.967-9.521 13.866-4.05-.055-5.54-2.34-7.017-4.477-.308-.446-.99-.228-.916.321.612 4.558 3.146 11.333 3.146 12.363a.886.886 0 0 1-.895.877zM149.353 172a.886.886 0 0 1-.895-.877c0-1.03 2.534-7.805 3.146-12.363.074-.549-.608-.767-.916-.321-1.477 2.137-2.967 4.422-7.017 4.477-7.548.101-11.895-7.212-9.521-13.866 1.164-3.263 17.175-25.05 19.35-25.05s18.186 21.787 19.35 25.05c2.374 6.654-1.973 13.967-9.521 13.866-4.05-.055-5.54-2.34-7.017-4.477-.308-.446-.99-.228-.916.321.612 4.558 3.146 11.333 3.146 12.363a.886.886 0 0 1-.895.877zM149.353 220a.886.886 0 0 0-.895.877c0 1.03 2.534 7.805 3.146 12.363.074.549-.608.767-.916.321-1.477-2.137-2.967-4.422-7.017-4.477-7.548-.101-11.895 7.212-9.521 13.866 1.164 3.263 17.175 25.05 19.35 25.05s18.186-21.787 19.35-25.05c2.374-6.654-1.973-13.967-9.521-13.866-4.05.055-5.54 2.34-7.017 4.477-.308.446-.99.228-.916-.321.612-4.558 3.146-11.333 3.146-12.363a.886.886 0 0 0-.895-.877z"/></g></g><defs><clipPath id="b"><rect width="203" height="288" x="8" y="4" fill="#fff" rx="10"/></clipPath><filter id="a" width="219" height="304" x="0" y="0" color-interpolation-filters="sRGB" filterUnits="userSpaceOnUse"><feFlood flood-opacity="0" result="BackgroundImageFix"/><feColorMatrix in="SourceAlpha" result="hardAlpha" values="0 0 0 0 0 0 0 0 0 0 0 0 0 0 0 0 0 0 127 0"/><feOffset dy="4"/><feGaussianBlur stdDeviation="4"/><feComposite in2="hardAlpha" operator="out"/><feColorMatrix values="0 0 0 0 0.614771 0 0 0 0 0.70094 0 0 0 0 0.806257 0 0 0 1 0"/><feBlend in2="BackgroundImageFix" result="effect1_dropShadow_18_661"/><feBlend in="SourceGraphic" in2="effect1_dropShadow_18_661" result="shape"/></filter></defs></svg>