<svg xmlns="http://www.w3.org/2000/svg" width="219" height="304" fill="none" viewBox="0 0 219 304"><g filter="url(#a)"><g clip-path="url(#b)"><rect width="203" height="288" x="8" y="4" fill="#fff" rx="10"/><path fill="#bc1e24" d="M16.111 38.555c0-1.001.58-1.682 1.462-1.682.68 0 1.12.36 1.641 1.381 1.101 2.143 2.943 3.304 5.346 3.304 3.643 0 6.186-2.563 6.186-6.246 0-3.524-2.463-6.006-5.926-6.006-1.562 0-2.943.52-4.104 1.561-1.462 1.361-1.862 1.602-2.503 1.602-1.14 0-1.721-.901-1.621-2.443l.88-11.21c.12-1.482.982-2.183 2.703-2.183h11.231c1.161 0 1.842.58 1.842 1.562 0 .96-.66 1.501-1.842 1.501h-10.79l-.761 8.909h.2c.901-1.341 3.243-2.302 5.546-2.302 5.085 0 8.668 3.643 8.668 8.828 0 5.526-3.984 9.45-9.57 9.45-5.284 0-8.588-3.224-8.588-6.026M26.18 52.104a.208.208 0 0 0-.36 0c-2.294 4.168-3.948 6.374-7.265 9.76a.193.193 0 0 0 0 .271c3.317 3.387 4.971 5.593 7.265 9.761a.208.208 0 0 0 .36 0c2.294-4.168 3.948-6.374 7.265-9.76a.193.193 0 0 0 0-.271c-3.317-3.387-4.971-5.593-7.265-9.761M202.889 257.445c0 1.001-.581 1.682-1.462 1.682-.68 0-1.121-.36-1.641-1.381-1.101-2.142-2.943-3.304-5.346-3.304-3.643 0-6.186 2.563-6.186 6.246 0 3.524 2.463 6.006 5.926 6.006 1.562 0 2.943-.52 4.104-1.561 1.462-1.362 1.862-1.602 2.503-1.602 1.141 0 1.721.901 1.621 2.443l-.881 11.211c-.12 1.481-.981 2.182-2.702 2.182h-11.231c-1.161 0-1.842-.581-1.842-1.562 0-.961.661-1.501 1.842-1.501h10.79l.761-8.909h-.2c-.901 1.341-3.243 2.302-5.546 2.302-5.085 0-8.668-3.643-8.668-8.828 0-5.526 3.984-9.45 9.569-9.45 5.285 0 8.589 3.224 8.589 6.026M192.82 243.896a.208.208 0 0 0 .36 0c2.294-4.168 3.948-6.374 7.265-9.761a.194.194 0 0 0 0-.27c-3.317-3.387-4.971-5.593-7.265-9.761a.208.208 0 0 0-.36 0c-2.294 4.168-3.948 6.374-7.265 9.761a.194.194 0 0 0 0 .27c3.317 3.387 4.971 5.593 7.265 9.761M65.95 27.26a.52.52 0 0 0-.9 0c-5.734 10.42-9.87 15.936-18.162 24.402a.48.48 0 0 0 0 .676c8.293 8.466 12.428 13.981 18.162 24.402a.52.52 0 0 0 .9 0c5.734-10.42 9.87-15.935 18.162-24.402a.48.48 0 0 0 0-.676C75.82 43.196 71.684 37.681 65.95 27.26M65.95 219.26a.52.52 0 0 0-.9 0c-5.734 10.421-9.87 15.936-18.162 24.402a.48.48 0 0 0 0 .676c8.293 8.466 12.428 13.981 18.162 24.402a.52.52 0 0 0 .9 0c5.734-10.421 9.87-15.936 18.162-24.402a.48.48 0 0 0 0-.676c-8.292-8.466-12.428-13.981-18.162-24.402M153.95 27.26a.52.52 0 0 0-.9 0c-5.734 10.42-9.869 15.936-18.162 24.402a.483.483 0 0 0 0 .676c8.293 8.466 12.428 13.981 18.162 24.402a.52.52 0 0 0 .9 0c5.734-10.42 9.869-15.935 18.162-24.402a.483.483 0 0 0 0-.676c-8.293-8.466-12.428-13.981-18.162-24.402M109.95 123.26a.52.52 0 0 0-.9 0c-5.734 10.421-9.87 15.936-18.162 24.402a.48.48 0 0 0 0 .676c8.292 8.466 12.428 13.981 18.162 24.402a.52.52 0 0 0 .9 0c5.734-10.421 9.869-15.936 18.162-24.402a.483.483 0 0 0 0-.676c-8.293-8.466-12.428-13.981-18.162-24.402M153.95 219.26a.52.52 0 0 0-.9 0c-5.734 10.421-9.869 15.936-18.162 24.402a.483.483 0 0 0 0 .676c8.293 8.466 12.428 13.981 18.162 24.402a.52.52 0 0 0 .9 0c5.734-10.421 9.869-15.936 18.162-24.402a.483.483 0 0 0 0-.676c-8.293-8.466-12.428-13.981-18.162-24.402"/></g></g><defs><clipPath id="b"><rect width="203" height="288" x="8" y="4" fill="#fff" rx="10"/></clipPath><filter id="a" width="219" height="304" x="0" y="0" color-interpolation-filters="sRGB" filterUnits="userSpaceOnUse"><feFlood flood-opacity="0" result="BackgroundImageFix"/><feColorMatrix in="SourceAlpha" result="hardAlpha" values="0 0 0 0 0 0 0 0 0 0 0 0 0 0 0 0 0 0 127 0"/><feOffset dy="4"/><feGaussianBlur stdDeviation="4"/><feComposite in2="hardAlpha" operator="out"/><feColorMatrix values="0 0 0 0 0.614771 0 0 0 0 0.70094 0 0 0 0 0.806257 0 0 0 1 0"/><feBlend in2="BackgroundImageFix" result="effect1_dropShadow_18_660"/><feBlend in="SourceGraphic" in2="effect1_dropShadow_18_660" result="shape"/></filter></defs></svg>