<svg xmlns="http://www.w3.org/2000/svg" width="219" height="304" fill="none" viewBox="0 0 219 304"><g filter="url(#a)"><g clip-path="url(#b)"><rect width="203" height="288" x="8" y="4" fill="#fff" rx="10"/><path fill="#211c1d" d="M28.463 42.378v-4.063h-10.53c-1.561 0-2.602-.821-2.602-2.143 0-.74.24-1.441.94-2.722 2.863-5.065 4.665-7.948 9.21-14.755 1.18-1.741 2.101-2.342 3.483-2.342 1.822 0 2.843 1.041 2.843 2.903v15.996h2.082c1.12 0 1.781.56 1.781 1.541 0 .96-.64 1.522-1.781 1.522h-2.082v4.063c0 1.162-.6 1.822-1.682 1.822-1.061 0-1.662-.66-1.662-1.822m-9.77-7.126h9.77V19.755h-.18c-3.403 5.025-6.967 10.75-9.59 15.295zM24.032 72a.39.39 0 0 1-.393-.388c0-.72 1.293-3.41 1.551-5.516.028-.227-.304-.31-.426-.117-.666 1.057-1.574 2.536-3.786 2.484l-.043.002-.086.002c-2.402 0-4.349-2.113-4.349-4.719 0-2.605 1.947-4.718 4.35-4.718.468 0 .92.08 1.343.23.098.035.2-.079.15-.17a5 5 0 0 1-.59-2.373C21.753 54.148 23.625 52 26 52s4.247 2.148 4.247 4.717a5 5 0 0 1-.59 2.373c-.05.091.052.205.15.17a4 4 0 0 1 1.344-.23c2.402 0 4.349 2.112 4.349 4.718s-1.947 4.719-4.35 4.719l-.085-.002-.043-.002c-2.212.052-3.12-1.427-3.786-2.484-.122-.194-.454-.11-.426.117.258 2.105 1.551 4.795 1.551 5.515a.39.39 0 0 1-.393.389zM190.537 253.622v4.064h10.53c1.561 0 2.602.82 2.602 2.142 0 .74-.24 1.441-.94 2.722-2.863 5.065-4.665 7.948-9.209 14.755-1.182 1.741-2.103 2.342-3.484 2.342-1.822 0-2.843-1.041-2.843-2.903v-15.995h-2.082c-1.121 0-1.781-.561-1.781-1.542 0-.961.64-1.521 1.781-1.521h2.082v-4.064c0-1.162.601-1.822 1.682-1.822 1.061 0 1.662.66 1.662 1.822m9.769 7.127h-9.769v15.495h.18c3.403-5.025 6.967-10.751 9.589-15.295zM194.968 224a.39.39 0 0 1 .393.389c0 .72-1.293 3.41-1.551 5.515-.028.227.304.311.426.117.666-1.057 1.574-2.536 3.786-2.484l.043-.002.086-.002c2.402 0 4.349 2.113 4.349 4.719s-1.947 4.718-4.349 4.718c-.469 0-.921-.081-1.344-.23-.099-.035-.199.079-.15.17.375.697.59 1.508.59 2.373 0 2.569-1.872 4.717-4.247 4.717s-4.247-2.148-4.247-4.717c0-.865.215-1.676.59-2.373.049-.091-.051-.205-.15-.17-.423.149-.875.23-1.344.23-2.402 0-4.349-2.112-4.349-4.718s1.947-4.719 4.349-4.719l.086.002.043.002c2.212-.052 3.12 1.427 3.786 2.484.122.194.454.11.426-.117-.258-2.105-1.551-4.795-1.551-5.515a.39.39 0 0 1 .393-.389zM60.84 76a.933.933 0 0 1-.933-.933c0-1.728 3.063-8.184 3.675-13.237.066-.543-.72-.745-1.01-.28-1.576 2.536-3.726 6.086-8.965 5.962l-.102.003-.204.005C47.61 67.52 43 62.45 43 56.196s4.612-11.324 10.3-11.324c1.111 0 2.18.194 3.183.552.234.083.472-.19.356-.409a12.1 12.1 0 0 1-1.397-5.694C55.442 33.156 59.875 28 65.5 28s10.058 5.156 10.058 11.32c0 2.078-.509 4.022-1.397 5.695-.116.22.122.492.356.409a9.4 9.4 0 0 1 3.182-.552c5.69 0 10.301 5.07 10.301 11.324S83.388 67.52 77.7 67.52q-.104 0-.205-.005l-.102-.003c-5.239.124-7.389-3.426-8.966-5.962-.289-.465-1.075-.263-1.009.28.612 5.053 3.674 11.509 3.674 13.237a.933.933 0 0 1-.932.933zM60.84 220a.933.933 0 0 0-.933.933c0 1.728 3.063 8.184 3.675 13.237.066.543-.72.745-1.01.28-1.576-2.536-3.726-6.086-8.965-5.962l-.102-.003a5 5 0 0 0-.204-.005c-5.69 0-10.301 5.07-10.301 11.324s4.612 11.324 10.3 11.324c1.111 0 2.18-.194 3.183-.552.234-.083.472.189.356.409a12.1 12.1 0 0 0-1.397 5.694c0 6.165 4.433 11.321 10.058 11.321s10.058-5.156 10.058-11.321c0-2.076-.509-4.021-1.397-5.694-.116-.22.122-.492.356-.409a9.4 9.4 0 0 0 3.182.552c5.69 0 10.301-5.07 10.301-11.324s-4.612-11.324-10.3-11.324a5 5 0 0 0-.205.005l-.102.003c-5.239-.124-7.389 3.426-8.966 5.962-.289.465-1.075.263-1.009-.28.612-5.053 3.674-11.509 3.674-13.237a.933.933 0 0 0-.932-.933zM148.84 76a.93.93 0 0 1-.932-.933c0-1.728 3.062-8.184 3.674-13.237.066-.543-.72-.745-1.009-.28-1.577 2.536-3.727 6.086-8.966 5.962l-.102.003-.204.005c-5.689 0-10.301-5.07-10.301-11.324s4.612-11.324 10.301-11.324c1.11 0 2.18.194 3.182.552.234.083.472-.19.356-.409a12.1 12.1 0 0 1-1.397-5.694c0-6.165 4.433-11.321 10.058-11.321s10.058 5.156 10.058 11.32c0 2.078-.509 4.022-1.397 5.695-.116.22.122.492.356.409a9.4 9.4 0 0 1 3.182-.552c5.689 0 10.301 5.07 10.301 11.324s-4.612 11.324-10.301 11.324q-.102 0-.204-.005l-.102-.003c-5.239.124-7.389-3.426-8.966-5.962-.289-.465-1.075-.263-1.009.28.612 5.053 3.674 11.509 3.674 13.237a.93.93 0 0 1-.932.933zM148.84 220a.933.933 0 0 0-.932.933c0 1.728 3.062 8.184 3.674 13.237.066.543-.72.745-1.009.28-1.577-2.536-3.727-6.086-8.966-5.962l-.102-.003a5 5 0 0 0-.204-.005c-5.689 0-10.301 5.07-10.301 11.324s4.612 11.324 10.301 11.324c1.11 0 2.18-.194 3.182-.552.234-.083.472.189.356.409a12.1 12.1 0 0 0-1.397 5.694c0 6.165 4.433 11.321 10.058 11.321s10.058-5.156 10.058-11.321c0-2.076-.509-4.021-1.397-5.694-.116-.22.122-.492.356-.409a9.4 9.4 0 0 0 3.182.552c5.689 0 10.301-5.07 10.301-11.324s-4.612-11.324-10.301-11.324q-.102 0-.204.005l-.102.003c-5.239-.124-7.389 3.426-8.966 5.962-.289.465-1.075.263-1.009-.28.612-5.053 3.674-11.509 3.674-13.237a.933.933 0 0 0-.932-.933z"/></g></g><defs><clipPath id="b"><rect width="203" height="288" x="8" y="4" fill="#fff" rx="10"/></clipPath><filter id="a" width="219" height="304" x="0" y="0" color-interpolation-filters="sRGB" filterUnits="userSpaceOnUse"><feFlood flood-opacity="0" result="BackgroundImageFix"/><feColorMatrix in="SourceAlpha" result="hardAlpha" values="0 0 0 0 0 0 0 0 0 0 0 0 0 0 0 0 0 0 127 0"/><feOffset dy="4"/><feGaussianBlur stdDeviation="4"/><feComposite in2="hardAlpha" operator="out"/><feColorMatrix values="0 0 0 0 0.614771 0 0 0 0 0.70094 0 0 0 0 0.806257 0 0 0 1 0"/><feBlend in2="BackgroundImageFix" result="effect1_dropShadow_18_629"/><feBlend in="SourceGraphic" in2="effect1_dropShadow_18_629" result="shape"/></filter></defs></svg>