<svg xmlns="http://www.w3.org/2000/svg" width="219" height="304" fill="none" viewBox="0 0 219 304"><g filter="url(#a)"><g clip-path="url(#b)"><rect width="203" height="288" x="8" y="4" fill="#fff" rx="10"/><path fill="#bc1e24" d="M15.479 44.2c-1.081 0-1.742-.74-1.742-1.922V18.395c0-1.181.66-1.922 1.742-1.922 1.08 0 1.761.74 1.761 1.922v23.883c0 1.181-.68 1.922-1.761 1.922m2.766-13.333v-1c0-8.289 3.544-13.774 9.73-13.774s9.71 5.485 9.71 13.773v1.001c0 8.268-3.544 13.714-9.73 13.714-6.166 0-9.71-5.426-9.71-13.714m3.504-.98v.94c0 6.667 2.382 10.73 6.226 10.73s6.226-4.063 6.226-10.73v-.94c0-6.667-2.402-10.751-6.246-10.751-3.824 0-6.206 4.084-6.206 10.75M21.735 53c2.717.042 3.772 2.398 4.119 3.51.035.112.258.112.293 0 .347-1.112 1.401-3.468 4.118-3.51 3.558-.054 6.234 3.93 3.794 7.929C31.883 64.494 26.082 71 26 71c-.084 0-5.883-6.506-8.059-10.071-2.44-4 .236-7.983 3.794-7.928M203.521 251.8c1.081 0 1.742.741 1.742 1.922v23.883c0 1.181-.661 1.922-1.742 1.922s-1.761-.741-1.761-1.922v-23.883c0-1.181.68-1.922 1.761-1.922m-2.766 13.333v1.001c0 8.288-3.544 13.773-9.73 13.773s-9.709-5.485-9.709-13.773v-1.001c0-8.268 3.543-13.714 9.729-13.714 6.166 0 9.71 5.426 9.71 13.714m-3.504.981v-.941c0-6.667-2.382-10.731-6.226-10.731s-6.226 4.064-6.226 10.731v.941c0 6.666 2.402 10.75 6.246 10.75 3.824 0 6.206-4.084 6.206-10.75M197.265 242.999c-2.717-.041-3.772-2.397-4.119-3.508-.035-.113-.258-.113-.293 0-.347 1.111-1.401 3.467-4.118 3.508-3.558.055-6.234-3.928-3.794-7.928C187.117 231.506 192.918 225 193 225c.083 0 5.883 6.506 8.059 10.071 2.44 4-.236 7.983-3.794 7.928M55.22 30.251c6.549.1 9.092 5.795 9.928 8.48.084.272.622.271.707 0 .835-2.685 3.376-8.38 9.924-8.48 8.574-.131 15.025 9.494 9.143 19.16C79.679 58.027 65.698 73.75 65.5 73.75c-.201 0-14.178-15.722-19.421-24.339-5.883-9.666.568-19.291 9.142-19.16M55.22 201.749c6.549-.101 9.092-5.795 9.928-8.48.084-.272.622-.272.707 0 .835 2.685 3.376 8.379 9.924 8.48 8.574.131 15.025-9.494 9.143-19.16-5.243-8.616-19.224-24.339-19.422-24.339-.201 0-14.178 15.722-19.421 24.339-5.883 9.666.568 19.291 9.142 19.16M143.221 30.251c6.548.1 9.091 5.795 9.927 8.48.084.272.622.271.707 0 .835-2.685 3.376-8.38 9.924-8.48 8.574-.131 15.025 9.494 9.143 19.16-5.243 8.616-19.224 24.339-19.422 24.339-.201 0-14.178-15.722-19.421-24.339-5.883-9.666.568-19.291 9.142-19.16M55.22 94.251c6.549.1 9.092 5.795 9.928 8.48.084.272.622.272.707 0 .835-2.685 3.376-8.38 9.924-8.48 8.574-.131 15.025 9.494 9.143 19.16-5.243 8.616-19.224 24.339-19.422 24.339-.201 0-14.178-15.722-19.421-24.339-5.883-9.666.568-19.291 9.142-19.16M55.22 265.749c6.549-.101 9.092-5.795 9.928-8.48.084-.272.622-.272.707 0 .835 2.685 3.376 8.379 9.924 8.48 8.574.131 15.025-9.494 9.143-19.16-5.243-8.616-19.224-24.339-19.422-24.339-.201 0-14.178 15.722-19.421 24.339-5.883 9.666.568 19.291 9.142 19.16M143.221 94.251c6.548.1 9.091 5.795 9.927 8.48.084.272.622.272.707 0 .835-2.685 3.376-8.38 9.924-8.48 8.574-.131 15.025 9.494 9.143 19.16-5.243 8.616-19.224 24.339-19.422 24.339-.201 0-14.178-15.722-19.421-24.339-5.883-9.666.568-19.291 9.142-19.16M99.22 62.251c6.549.1 9.092 5.795 9.928 8.48.084.272.622.272.707 0 .835-2.685 3.376-8.38 9.924-8.48 8.574-.131 15.025 9.495 9.143 19.16-5.243 8.616-19.224 24.339-19.422 24.339-.201 0-14.178-15.722-19.421-24.338-5.883-9.667.568-19.292 9.142-19.16M99.22 233.749c6.549-.101 9.092-5.795 9.928-8.48.084-.272.622-.272.707 0 .835 2.685 3.376 8.379 9.924 8.48 8.574.131 15.025-9.494 9.143-19.16-5.243-8.616-19.224-24.339-19.422-24.339-.201 0-14.178 15.722-19.421 24.339-5.883 9.666.568 19.291 9.142 19.16M143.221 265.749c6.548-.101 9.091-5.795 9.927-8.48.084-.272.622-.272.707 0 .835 2.685 3.376 8.379 9.924 8.48 8.574.131 15.025-9.494 9.143-19.16-5.243-8.616-19.224-24.339-19.422-24.339-.201 0-14.178 15.722-19.421 24.339-5.883 9.666.568 19.291 9.142 19.16M143.221 201.749c6.548-.101 9.091-5.795 9.927-8.48.084-.272.622-.272.707 0 .835 2.685 3.376 8.379 9.924 8.48 8.574.131 15.025-9.494 9.143-19.16-5.243-8.616-19.224-24.339-19.422-24.339-.201 0-14.178 15.722-19.421 24.339-5.883 9.666.568 19.291 9.142 19.16"/></g></g><defs><clipPath id="b"><rect width="203" height="288" x="8" y="4" fill="#fff" rx="10"/></clipPath><filter id="a" width="219" height="304" x="0" y="0" color-interpolation-filters="sRGB" filterUnits="userSpaceOnUse"><feFlood flood-opacity="0" result="BackgroundImageFix"/><feColorMatrix in="SourceAlpha" result="hardAlpha" values="0 0 0 0 0 0 0 0 0 0 0 0 0 0 0 0 0 0 127 0"/><feOffset dy="4"/><feGaussianBlur stdDeviation="4"/><feComposite in2="hardAlpha" operator="out"/><feColorMatrix values="0 0 0 0 0.614771 0 0 0 0 0.70094 0 0 0 0 0.806257 0 0 0 1 0"/><feBlend in2="BackgroundImageFix" result="effect1_dropShadow_18_664"/><feBlend in="SourceGraphic" in2="effect1_dropShadow_18_664" result="shape"/></filter></defs></svg>