<svg xmlns="http://www.w3.org/2000/svg" width="219" height="304" fill="none" viewBox="0 0 219 304"><g filter="url(#a)"><g clip-path="url(#b)"><rect width="203" height="288" x="8" y="4" fill="#fff" rx="10"/><path fill="#bc1e24" d="M16.19 44.26c-1 0-1.66-.58-1.66-1.501 0-.4.1-.781.26-1.261l8.228-23.003c.5-1.401 1.2-2.042 2.482-2.042 1.281 0 1.982.64 2.482 2.042l8.228 23.003c.16.44.26.86.26 1.24 0 .942-.66 1.522-1.68 1.522-.962 0-1.502-.46-1.883-1.641l-2.302-6.827h-10.23l-2.302 6.827c-.38 1.2-.921 1.641-1.882 1.641m5.126-11.29h8.348L25.56 20.796h-.14zM26.18 52.104a.208.208 0 0 0-.36 0c-2.294 4.168-3.948 6.374-7.265 9.76a.193.193 0 0 0 0 .271c3.317 3.387 4.971 5.593 7.265 9.761a.208.208 0 0 0 .36 0c2.294-4.168 3.948-6.374 7.265-9.76a.193.193 0 0 0 0-.271c-3.317-3.387-4.971-5.593-7.265-9.761M202.809 251.74c1.001 0 1.662.58 1.662 1.501 0 .401-.1.781-.261 1.261l-8.228 23.003c-.5 1.401-1.201 2.042-2.482 2.042s-1.982-.641-2.482-2.042l-8.228-23.003c-.161-.44-.261-.86-.261-1.241 0-.941.661-1.521 1.682-1.521.961 0 1.501.46 1.882 1.641l2.302 6.827h10.23l2.302-6.827c.381-1.201.921-1.641 1.882-1.641m-5.125 11.291h-8.348l4.104 12.172h.14zM192.82 243.896a.208.208 0 0 0 .36 0c2.294-4.168 3.948-6.374 7.265-9.761a.194.194 0 0 0 0-.27c-3.317-3.387-4.971-5.593-7.265-9.761a.208.208 0 0 0-.36 0c-2.294 4.168-3.948 6.374-7.265 9.761a.194.194 0 0 0 0 .27c3.317 3.387 4.971 5.593 7.265 9.761M109.95 123.26a.52.52 0 0 0-.9 0c-5.734 10.421-9.87 15.936-18.162 24.402a.48.48 0 0 0 0 .676c8.292 8.466 12.428 13.981 18.162 24.402a.52.52 0 0 0 .9 0c5.734-10.421 9.869-15.936 18.162-24.402a.483.483 0 0 0 0-.676c-8.293-8.466-12.428-13.981-18.162-24.402"/></g></g><defs><clipPath id="b"><rect width="203" height="288" x="8" y="4" fill="#fff" rx="10"/></clipPath><filter id="a" width="219" height="304" x="0" y="0" color-interpolation-filters="sRGB" filterUnits="userSpaceOnUse"><feFlood flood-opacity="0" result="BackgroundImageFix"/><feColorMatrix in="SourceAlpha" result="hardAlpha" values="0 0 0 0 0 0 0 0 0 0 0 0 0 0 0 0 0 0 127 0"/><feOffset dy="4"/><feGaussianBlur stdDeviation="4"/><feComposite in2="hardAlpha" operator="out"/><feColorMatrix values="0 0 0 0 0.614771 0 0 0 0 0.70094 0 0 0 0 0.806257 0 0 0 1 0"/><feBlend in2="BackgroundImageFix" result="effect1_dropShadow_18_674"/><feBlend in="SourceGraphic" in2="effect1_dropShadow_18_674" result="shape"/></filter></defs></svg>