<svg xmlns="http://www.w3.org/2000/svg" width="219" height="304" fill="none" viewBox="0 0 219 304"><g filter="url(#a)"><g clip-path="url(#b)"><rect width="203" height="288" x="8" y="4" fill="#fff" rx="10"/><path fill="#bc1e24" d="M15.479 44.2c-1.081 0-1.742-.74-1.742-1.922V18.395c0-1.181.66-1.922 1.742-1.922 1.08 0 1.761.74 1.761 1.922v23.883c0 1.181-.68 1.922-1.761 1.922m2.766-13.333v-1c0-8.289 3.544-13.774 9.73-13.774s9.71 5.485 9.71 13.773v1.001c0 8.268-3.544 13.714-9.73 13.714-6.166 0-9.71-5.426-9.71-13.714m3.504-.98v.94c0 6.667 2.382 10.73 6.226 10.73s6.226-4.063 6.226-10.73v-.94c0-6.667-2.402-10.751-6.246-10.751-3.824 0-6.206 4.084-6.206 10.75M26.18 52.104a.208.208 0 0 0-.36 0c-2.294 4.168-3.948 6.374-7.265 9.76a.193.193 0 0 0 0 .271c3.317 3.387 4.971 5.593 7.265 9.761a.208.208 0 0 0 .36 0c2.294-4.168 3.948-6.374 7.265-9.76a.193.193 0 0 0 0-.271c-3.317-3.387-4.971-5.593-7.265-9.761M203.521 251.8c1.081 0 1.742.741 1.742 1.922v23.883c0 1.181-.661 1.922-1.742 1.922s-1.761-.741-1.761-1.922v-23.883c0-1.181.68-1.922 1.761-1.922m-2.766 13.333v1.001c0 8.288-3.544 13.773-9.73 13.773s-9.709-5.485-9.709-13.773v-1.001c0-8.268 3.543-13.714 9.729-13.714 6.166 0 9.71 5.426 9.71 13.714m-3.504.981v-.941c0-6.667-2.382-10.731-6.226-10.731s-6.226 4.064-6.226 10.731v.941c0 6.666 2.402 10.75 6.246 10.75 3.824 0 6.206-4.084 6.206-10.75M192.82 243.896a.208.208 0 0 0 .36 0c2.294-4.168 3.948-6.374 7.265-9.761a.194.194 0 0 0 0-.27c-3.317-3.387-4.971-5.593-7.265-9.761a.208.208 0 0 0-.36 0c-2.294 4.168-3.948 6.374-7.265 9.761a.194.194 0 0 0 0 .27c3.317 3.387 4.971 5.593 7.265 9.761M65.95 27.26a.52.52 0 0 0-.9 0c-5.734 10.42-9.87 15.936-18.162 24.402a.48.48 0 0 0 0 .676c8.293 8.466 12.428 13.981 18.162 24.402a.52.52 0 0 0 .9 0c5.734-10.42 9.87-15.935 18.162-24.402a.48.48 0 0 0 0-.676C75.82 43.196 71.684 37.681 65.95 27.26M65.95 219.26a.52.52 0 0 0-.9 0c-5.734 10.421-9.87 15.936-18.162 24.402a.48.48 0 0 0 0 .676c8.293 8.466 12.428 13.981 18.162 24.402a.52.52 0 0 0 .9 0c5.734-10.421 9.87-15.936 18.162-24.402a.48.48 0 0 0 0-.676c-8.292-8.466-12.428-13.981-18.162-24.402M153.95 27.26a.52.52 0 0 0-.9 0c-5.734 10.42-9.869 15.936-18.162 24.402a.483.483 0 0 0 0 .676c8.293 8.466 12.428 13.981 18.162 24.402a.52.52 0 0 0 .9 0c5.734-10.42 9.869-15.935 18.162-24.402a.483.483 0 0 0 0-.676c-8.293-8.466-12.428-13.981-18.162-24.402M65.95 91.26a.52.52 0 0 0-.9 0c-5.734 10.421-9.87 15.936-18.162 24.402a.48.48 0 0 0 0 .676c8.293 8.466 12.428 13.981 18.162 24.402a.52.52 0 0 0 .9 0c5.734-10.421 9.87-15.936 18.162-24.402a.48.48 0 0 0 0-.676c-8.292-8.466-12.428-13.981-18.162-24.402M65.95 155.26a.52.52 0 0 0-.9 0c-5.734 10.421-9.87 15.936-18.162 24.402a.48.48 0 0 0 0 .676c8.293 8.466 12.428 13.981 18.162 24.402a.52.52 0 0 0 .9 0c5.734-10.421 9.87-15.936 18.162-24.402a.48.48 0 0 0 0-.676c-8.292-8.466-12.428-13.981-18.162-24.402M153.95 91.26a.52.52 0 0 0-.9 0c-5.734 10.421-9.869 15.936-18.162 24.402a.483.483 0 0 0 0 .676c8.293 8.466 12.428 13.981 18.162 24.402a.52.52 0 0 0 .9 0c5.734-10.421 9.869-15.936 18.162-24.402a.483.483 0 0 0 0-.676c-8.293-8.466-12.428-13.981-18.162-24.402M109.95 59.26a.52.52 0 0 0-.9 0c-5.734 10.42-9.87 15.935-18.162 24.402a.48.48 0 0 0 0 .676c8.292 8.467 12.428 13.981 18.162 24.402a.52.52 0 0 0 .9 0c5.734-10.42 9.869-15.935 18.162-24.402a.483.483 0 0 0 0-.676c-8.293-8.467-12.428-13.981-18.162-24.402M109.95 187.26a.52.52 0 0 0-.9 0c-5.734 10.421-9.87 15.936-18.162 24.402a.48.48 0 0 0 0 .676c8.292 8.466 12.428 13.981 18.162 24.402a.52.52 0 0 0 .9 0c5.734-10.421 9.869-15.936 18.162-24.402a.483.483 0 0 0 0-.676c-8.293-8.466-12.428-13.981-18.162-24.402M153.95 155.26a.52.52 0 0 0-.9 0c-5.734 10.421-9.869 15.936-18.162 24.402a.483.483 0 0 0 0 .676c8.293 8.466 12.428 13.981 18.162 24.402a.52.52 0 0 0 .9 0c5.734-10.421 9.869-15.936 18.162-24.402a.483.483 0 0 0 0-.676c-8.293-8.466-12.428-13.981-18.162-24.402M153.95 219.26a.52.52 0 0 0-.9 0c-5.734 10.421-9.869 15.936-18.162 24.402a.483.483 0 0 0 0 .676c8.293 8.466 12.428 13.981 18.162 24.402a.52.52 0 0 0 .9 0c5.734-10.421 9.869-15.936 18.162-24.402a.483.483 0 0 0 0-.676c-8.293-8.466-12.428-13.981-18.162-24.402"/></g></g><defs><clipPath id="b"><rect width="203" height="288" x="8" y="4" fill="#fff" rx="10"/></clipPath><filter id="a" width="219" height="304" x="0" y="0" color-interpolation-filters="sRGB" filterUnits="userSpaceOnUse"><feFlood flood-opacity="0" result="BackgroundImageFix"/><feColorMatrix in="SourceAlpha" result="hardAlpha" values="0 0 0 0 0 0 0 0 0 0 0 0 0 0 0 0 0 0 127 0"/><feOffset dy="4"/><feGaussianBlur stdDeviation="4"/><feComposite in2="hardAlpha" operator="out"/><feColorMatrix values="0 0 0 0 0.614771 0 0 0 0 0.70094 0 0 0 0 0.806257 0 0 0 1 0"/><feBlend in2="BackgroundImageFix" result="effect1_dropShadow_18_651"/><feBlend in="SourceGraphic" in2="effect1_dropShadow_18_651" result="shape"/></filter></defs></svg>