<svg xmlns="http://www.w3.org/2000/svg" width="385" height="385" fill="none" viewBox="0 0 385 385"><rect width="240" height="336" x="73" y="25" fill="#fff" rx="11"/><rect width="240" height="336" x="73" y="25" fill="#fff" rx="11"/><path stroke="#002fa7" stroke-width="1.625" d="M282 289.385a3.386 3.386 0 0 1 3.385-3.385h4.232a2.54 2.54 0 0 1 0 5.078 2.54 2.54 0 0 0-2.539 2.539 2.54 2.54 0 0 1-5.078 0z"/><path stroke="#f67ca2" stroke-width="1.625" d="M285.385 286a3.386 3.386 0 0 1-3.385-3.385v-4.232a2.54 2.54 0 0 1 5.078 0 2.54 2.54 0 0 0 2.539 2.539 2.54 2.54 0 0 1 0 5.078zM282 289.385a3.386 3.386 0 0 0-3.385-3.385h-4.232a2.54 2.54 0 0 0 0 5.078 2.54 2.54 0 0 1 2.539 2.539 2.54 2.54 0 0 0 5.078 0z"/><path stroke="#002fa7" stroke-width="1.625" d="M278.615 286a3.386 3.386 0 0 0 3.385-3.385v-4.232a2.54 2.54 0 0 0-5.078 0 2.54 2.54 0 0 1-2.539 2.539 2.54 2.54 0 0 0 0 5.078z"/><path fill="#222" d="M290.926 309q.243 0 .244.244l-.098 33.51q0 .195-.195.195l-9.121.049q-2.683.05-4.878-1.268a9.84 9.84 0 0 1-3.561-3.561Q272 335.975 272 333.291v-13.999q0-2.829 1.366-5.17a10.4 10.4 0 0 1 3.658-3.659q2.292-1.366 5.171-1.414zm-5.707 6h-3.024q-1.806 0-3.025 1.268-1.268 1.267-1.268 3.024v14.048q0 1.561 1.171 2.683 1.122 1.17 2.683 1.122l3.414-.049z"/><path stroke="#002fa7" stroke-width="1.625" d="M104 96.615a3.386 3.386 0 0 1-3.385 3.385h-4.232a2.539 2.539 0 0 1 0-5.078 2.54 2.54 0 0 0 2.539-2.54 2.54 2.54 0 0 1 5.078 0z"/><path stroke="#f67ca2" stroke-width="1.625" d="M100.615 100a3.386 3.386 0 0 1 3.385 3.385v4.232a2.54 2.54 0 0 1-5.078 0 2.54 2.54 0 0 0-2.54-2.539 2.54 2.54 0 0 1 0-5.078zM104 96.615a3.386 3.386 0 0 0 3.385 3.385h4.232a2.54 2.54 0 0 0 0-5.078 2.54 2.54 0 0 1-2.539-2.54 2.54 2.54 0 0 0-5.078 0z"/><path stroke="#002fa7" stroke-width="1.625" d="M107.385 100a3.386 3.386 0 0 0-3.385 3.385v4.232a2.54 2.54 0 0 0 5.078 0 2.54 2.54 0 0 1 2.539-2.539 2.54 2.54 0 0 0 0-5.078z"/><path fill="#222" d="M97.195 77Q97 77 97 76.756l.049-33.512q0-.244.244-.244h5.423q.244 0 .244.244l-.049 27.747h10.063q.244 0 .244.245v5.52q0 .244-.244.244z"/><path stroke="#002fa7" stroke-width="6.25" d="M193 179.979c0 7.191-5.83 13.021-13.021 13.021h-16.276c-5.393 0-9.765-4.372-9.765-9.766 0-5.393 4.372-9.765 9.765-9.765a9.766 9.766 0 0 0 9.766-9.766c0-5.393 4.372-9.765 9.765-9.765S193 158.31 193 163.703z"/><path stroke="#f67ca2" stroke-width="6.25" d="M179.979 193c7.191 0 13.021 5.83 13.021 13.021v16.276c0 5.393-4.372 9.765-9.766 9.765-5.393 0-9.765-4.372-9.765-9.765a9.766 9.766 0 0 0-9.766-9.766c-5.393 0-9.765-4.372-9.765-9.765S158.31 193 163.703 193zM193 179.979c0 7.191 5.83 13.021 13.021 13.021h16.276c5.393 0 9.765-4.372 9.765-9.766 0-5.393-4.372-9.765-9.765-9.765a9.766 9.766 0 0 1-9.766-9.766c0-5.393-4.372-9.765-9.765-9.765S193 158.31 193 163.703z"/><path stroke="#002fa7" stroke-width="6.25" d="M206.021 193C198.83 193 193 198.83 193 206.021v16.276c0 5.393 4.372 9.766 9.766 9.766 5.393 0 9.765-4.373 9.765-9.766a9.766 9.766 0 0 1 9.766-9.766c5.393 0 9.766-4.372 9.766-9.765S227.69 193 222.297 193z"/></svg>