<svg xmlns="http://www.w3.org/2000/svg" width="108" height="108" fill="none" viewBox="0 0 108 108"><path stroke="#002fa7" stroke-width="8" d="M54 37.333C54 46.538 46.538 54 37.333 54H16.5C9.596 54 4 48.404 4 41.5S9.596 29 16.5 29 29 23.404 29 16.5 34.596 4 41.5 4 54 9.596 54 16.5z"/><path stroke="#f67ca2" stroke-width="8" d="M37.333 54C46.538 54 54 61.462 54 70.667V91.5c0 6.904-5.596 12.5-12.5 12.5S29 98.404 29 91.5 23.404 79 16.5 79 4 73.404 4 66.5 9.596 54 16.5 54zM54 37.333C54 46.538 61.462 54 70.667 54H91.5c6.904 0 12.5-5.596 12.5-12.5S98.404 29 91.5 29 79 23.404 79 16.5 73.404 4 66.5 4 54 9.596 54 16.5z"/><path stroke="#002fa7" stroke-width="8" d="M70.667 54C61.462 54 54 61.462 54 70.667V91.5c0 6.904 5.596 12.5 12.5 12.5S79 98.404 79 91.5 84.596 79 91.5 79 104 73.404 104 66.5 98.404 54 91.5 54z"/></svg>