<svg width="108" height="108" viewBox="0 0 108 108" fill="none" xmlns="http://www.w3.org/2000/svg">
<path d="M54 37.3333C54 46.5381 46.5381 54 37.3333 54L16.5 54C9.59644 54 4 48.4036 4 41.5C4 34.5964 9.59644 29 16.5 29C23.4036 29 29 23.4036 29 16.5C29 9.59644 34.5964 4 41.5 4C48.4036 4 54 9.59644 54 16.5L54 37.3333Z" stroke="#002FA7" stroke-width="8"/>
<path d="M37.3333 54C46.5381 54 54 61.4619 54 70.6667V91.5C54 98.4036 48.4036 104 41.5 104C34.5964 104 29 98.4036 29 91.5C29 84.5964 23.4036 79 16.5 79C9.59644 79 4 73.4036 4 66.5C4 59.5964 9.59644 54 16.5 54H37.3333Z" stroke="#F67CA2" stroke-width="8"/>
<path d="M54 37.3333C54 46.5381 61.4619 54 70.6667 54H91.5C98.4036 54 104 48.4036 104 41.5C104 34.5964 98.4036 29 91.5 29C84.5964 29 79 23.4036 79 16.5C79 9.59644 73.4036 4 66.5 4C59.5964 4 54 9.59644 54 16.5V37.3333Z" stroke="#F67CA2" stroke-width="8"/>
<path d="M70.6667 54C61.4619 54 54 61.4619 54 70.6667V91.5C54 98.4036 59.5964 104 66.5 104C73.4036 104 79 98.4036 79 91.5C79 84.5964 84.5964 79 91.5 79C98.4036 79 104 73.4036 104 66.5C104 59.5964 98.4036 54 91.5 54H70.6667Z" stroke="#002FA7" stroke-width="8"/>
</svg>
